<svg id="add_photo_alternate-24px" xmlns="http://www.w3.org/2000/svg" width="46" height="46" viewBox="0 0 46 46">
  <path id="Path_153" data-name="Path 153" d="M0,0H46V46H0Z" fill="none"/>
  <path id="Path_154" data-name="Path 154" d="M33.667,11.583v5.731s-3.814.019-3.833,0V11.583h-5.75s.019-3.814,0-3.833h5.75V2h3.833V7.75h5.75v3.833Zm-5.75,7.667V13.5h-5.75V7.75H6.833A3.845,3.845,0,0,0,3,11.583v23a3.845,3.845,0,0,0,3.833,3.833h23a3.845,3.845,0,0,0,3.833-3.833V19.25ZM6.833,34.583l5.75-7.667,3.833,5.75L22.167,25l7.667,9.583Z" transform="translate(2.75 1.833)" fill="#6a6975"/>
</svg>
