<svg width="22" height="22" viewBox="0 0 22 22" fill="none" xmlns="http://www.w3.org/2000/svg">
<path d="M12.832 5.50065V3.66732H9.16536V5.50065H12.832ZM3.66536 7.33398V17.4173H18.332V7.33398H3.66536ZM18.332 5.50065C19.3495 5.50065 20.1654 6.31648 20.1654 7.33398V17.4173C20.1654 18.4348 19.3495 19.2507 18.332 19.2507H3.66536C2.64786 19.2507 1.83203 18.4348 1.83203 17.4173L1.8412 7.33398C1.8412 6.31648 2.64786 5.50065 3.66536 5.50065H7.33203V3.66732C7.33203 2.64982 8.14786 1.83398 9.16536 1.83398H12.832C13.8495 1.83398 14.6654 2.64982 14.6654 3.66732V5.50065H18.332Z" fill="#202766"/>
</svg>
