<svg width="28" height="28" viewBox="0 0 28 28" fill="none" xmlns="http://www.w3.org/2000/svg">
<path d="M21 12.834C21 13.6157 21 14.3857 21 15.1673C22.4 15.1673 24.22 15.1673 25.6667 15.1673C25.6667 14.3857 25.6667 13.6157 25.6667 12.834C24.22 12.834 22.4 12.834 21 12.834Z" fill="white"/>
<path d="M18.668 20.5443C19.788 21.3727 21.2463 22.4693 22.4013 23.3327C22.868 22.7143 23.3346 22.0843 23.8013 21.466C22.6463 20.6027 21.188 19.506 20.068 18.666C19.6013 19.296 19.1346 19.926 18.668 20.5443Z" fill="white"/>
<path d="M23.8013 6.53268C23.3346 5.91435 22.868 5.28435 22.4013 4.66602C21.2463 5.52935 19.788 6.62602 18.668 7.46602C19.1346 8.08435 19.6013 8.71435 20.068 9.33268C21.188 8.49268 22.6463 7.40768 23.8013 6.53268Z" fill="white"/>
<path d="M4.66536 10.5C3.38203 10.5 2.33203 11.55 2.33203 12.8333V15.1667C2.33203 16.45 3.38203 17.5 4.66536 17.5H5.83203V22.1667H8.16537V17.5H9.33203L15.1654 21V7L9.33203 10.5H4.66536ZM10.5337 12.495L12.832 11.1183V16.8817L10.5337 15.505L9.9737 15.1667H9.33203H4.66536V12.8333H9.33203H9.9737L10.5337 12.495Z" fill="white"/>
<path d="M18.082 14.0001C18.082 12.4485 17.4054 11.0485 16.332 10.0918V17.8968C17.4054 16.9518 18.082 15.5518 18.082 14.0001Z" fill="white"/>
</svg>
