<svg id="chat-outline-24" xmlns="http://www.w3.org/2000/svg" width="24" height="24" viewBox="0 0 24 24">
  <rect id="Rectangle_27" data-name="Rectangle 27" width="24" height="24" fill="none"/>
  <g id="Group_61" data-name="Group 61">
    <path id="Path_40" data-name="Path 40" d="M12,4a8,8,0,0,1,0,16,8.075,8.075,0,0,1-3.4-.8,2.92,2.92,0,0,0-.9-.2,1.268,1.268,0,0,0-.6.1L3.9,20l.9-3.2a2.2,2.2,0,0,0-.1-1.4A9.828,9.828,0,0,1,4,12a8.024,8.024,0,0,1,8-8m0-2A10.029,10.029,0,0,0,2,12a10.434,10.434,0,0,0,1,4.3L1,23l6.7-2A10.434,10.434,0,0,0,12,22,10,10,0,0,0,12,2Z" fill="#fff"/>
  </g>
</svg>
