<svg width="20" height="21" viewBox="0 0 20 21" fill="none" xmlns="http://www.w3.org/2000/svg">
  <path d="M0 8.5c0-2.809 0-4.213.674-5.222a4 4 0 0 1 1.104-1.104C2.787 1.5 4.19 1.5 7 1.5h6c2.809 0 4.213 0 5.222.674a4 4 0 0 1 1.104 1.104C20 4.287 20 5.69 20 8.5v1c0 1.864 0 2.796-.305 3.53a4 4 0 0 1-2.164 2.165c-.735.305-1.667.305-3.531.305-.66 0-.99 0-1.307.052a3.996 3.996 0 0 0-1.216.405c-.286.15-.55.347-1.077.743l-3.2 2.4c-1.396 1.047-2.094 1.57-2.647 1.294C4 20.118 4 19.245 4 17.5v-1.2a.8.8 0 0 0-.8-.8" fill="#494949"/>
  <path d="M3.906 6.627c0-.405.328-.733.732-.733h10.254a.732.732 0 1 1 0 1.465H4.638a.732.732 0 0 1-.732-.732Zm0 3.906c0-.405.328-.733.732-.733h6.348a.732.732 0 1 1 0 1.465H4.638a.732.732 0 0 1-.732-.732Z" fill="#fff"/>
  <path fill-rule="evenodd" clip-rule="evenodd" d="M0 8.335c0-2.742 0-4.114.658-5.1a3.906 3.906 0 0 1 1.078-1.077C2.72 1.5 4.093 1.5 6.836 1.5h5.858c2.743 0 4.115 0 5.1.658.427.285.793.651 1.078 1.078.658.985.658 2.357.658 5.1v.976c0 1.82 0 2.73-.297 3.448a3.907 3.907 0 0 1-2.114 2.114c-.718.297-1.628.297-3.448.297-.644 0-.966 0-1.277.05a3.927 3.927 0 0 0-1.187.396c-.279.146-.536.34-1.051.726L7.03 18.686C5.667 19.71 4.986 20.22 4.446 19.95s-.54-1.122-.54-2.826v-1.172a.781.781 0 0 0-.781-.781A3.125 3.125 0 0 1 0 12.046v-3.71Zm6.835-5.37h5.86c1.401 0 2.343.002 3.06.075.693.07 1.013.195 1.225.336.267.178.496.407.674.674.141.212.266.532.337 1.225.073.717.074 1.659.074 3.06v.977c0 .93 0 1.554-.034 2.038-.032.47-.09.699-.152.85a2.441 2.441 0 0 1-1.32 1.32c-.152.063-.38.12-.85.152-.484.034-1.108.034-2.038.034h-.095c-.552 0-.986 0-1.416.07a5.372 5.372 0 0 0-1.633.544c-.385.202-.733.463-1.174.794l-3.201 2.4c-.312.234-.565.424-.776.576-.005-.26-.005-.576-.005-.966v-1.172a2.246 2.246 0 0 0-2.246-2.246 1.66 1.66 0 0 1-1.66-1.66v-3.71c0-1.402.002-2.344.075-3.061.07-.693.195-1.013.336-1.225a2.43 2.43 0 0 1 .674-.674c.212-.141.532-.266 1.225-.336.717-.073 1.659-.075 3.06-.075Z" fill="#fff"/>
</svg>
