<svg class="svg-icon" style="width: 1.181640625em;height: 1em;vertical-align: middle;fill: currentColor;overflow: hidden;" viewBox="0 0 1210 1024" version="1.1" xmlns="http://www.w3.org/2000/svg">
  <path d="M788.31746 464.863492h342.95873c40.634921 0 73.142857-32.507937 73.142858-73.142857V78.019048c0-40.634921-32.507937-73.142857-73.142858-73.142858H659.098413c-40.634921 0-73.142857 32.507937-73.142857 73.142858v436.419047c0 17.879365 20.31746 27.631746 34.133333 16.253968l54.450794-65.828571h113.777777z" fill="#21D3AC"/>
  <path d="M864.711111 880.152381c-2.438095 5.688889-5.688889 12.190476-9.752381 17.066667-1.625397 1.625397-2.438095 4.063492-4.063492 5.688889-25.193651 39.822222-57.701587 75.580952-100.774603 96.711111-47.949206 23.568254-102.4 20.31746-154.412698 13.003174-17.879365-2.438095-35.75873-6.501587-53.638096-10.565079-182.857143-46.32381-327.51746-142.222222-433.168254-289.320635C90.209524 686.730159 73.142857 659.098413 56.888889 630.653968c-18.692063-33.320635-34.133333-68.266667-44.698413-104.838095-2.438095-6.501587-4.063492-13.815873-5.688889-20.31746C-8.126984 450.234921 4.063492 399.034921 35.75873 352.711111c11.377778-16.253968 23.568254-31.695238 35.75873-47.136508 4.87619-5.688889 9.752381-11.377778 15.44127-15.44127 34.946032-28.444444 83.707937-33.320635 121.904762-7.314285 35.75873 24.380952 70.704762 51.2 103.212698 79.644444 34.133333 30.069841 42.260317 77.206349 24.380953 117.028571-2.438095 5.688889-5.688889 11.377778-8.939683 17.066667-8.939683 13.003175-18.692063 25.193651-28.444444 38.196826-21.130159 27.631746-19.504762 52.012698 3.250794 77.206349 56.07619 61.765079 122.71746 110.526984 195.860317 149.536508 26.819048 14.628571 52.012698 8.939683 71.51746-15.44127 9.752381-12.190476 19.504762-25.193651 29.257143-37.384127 4.87619-6.501587 11.377778-12.190476 17.066667-17.066667 34.946032-27.631746 84.520635-30.069841 122.71746-3.250793 32.507937 22.755556 65.015873 47.136508 95.085714 73.142857 37.384127 30.069841 48.761905 78.019048 30.88254 118.653968z" fill="white"/>
  <path d="M753.371429 241.371429m-41.447619 0a41.447619 41.447619 0 1 0 82.895238 0 41.447619 41.447619 0 1 0-82.895238 0Z" fill="#FFFFFF"/>
  <path d="M894.780952 241.371429m-41.447619 0a41.447619 41.447619 0 1 0 82.895238 0 41.447619 41.447619 0 1 0-82.895238 0Z" fill="#FFFFFF"/>
  <path d="M1063.822222 272.253968c-7.314286 6.501587-17.066667 10.565079-27.631746 10.56508-22.755556 0-41.447619-18.692063-41.447619-41.447619s18.692063-41.447619 41.447619-41.447619 41.447619 18.692063 41.447619 41.447619c0 12.190476-5.688889 23.568254-13.815873 30.882539" fill="#FFFFFF"/>
  <path d="M851.707937 903.720635c-4.063492 0.812698-13.003175 18.692063-15.44127 21.942857-5.688889 8.126984-12.190476 16.253968-18.692064 23.568254-13.003175 14.628571-26.819048 27.631746-43.073016 38.196825-69.892063 43.885714-155.225397 34.133333-231.619047 15.44127-182.857143-46.32381-327.51746-142.222222-433.168254-289.320635-18.692063-26.006349-35.75873-53.638095-52.012699-82.082539-18.692063-33.320635-34.133333-68.266667-44.698412-104.838096 307.2 418.539683 608.711111 434.793651 838.704762 377.092064z" fill="white"/>
  <path d="M338.08254 479.492063L88.584127 290.133333c34.946032-28.444444 83.707937-33.320635 121.904762-7.314285 35.75873 24.380952 70.704762 51.2 103.212698 79.644444 34.133333 30.069841 42.260317 77.206349 24.380953 117.028571zM864.711111 880.152381L616.838095 691.606349c34.946032-27.631746 84.520635-30.069841 122.717461-3.250793 32.507937 22.755556 65.015873 47.136508 95.085714 73.142857 36.571429 30.069841 47.949206 78.019048 30.069841 118.653968z" fill="white"/>
</svg>
