<svg width="17" height="14" viewBox="0 0 17 14" fill="none" xmlns="http://www.w3.org/2000/svg">
<path d="M13.2487 13.8334H1.3737C1.16358 13.8355 0.961518 13.7526 0.813458 13.6035C0.665399 13.4544 0.583928 13.2518 0.587573 13.0417H0.582031V1.95833C0.582031 1.08388 1.29091 0.375 2.16536 0.375H6.91536C7.09219 0.375169 7.26387 0.434532 7.40303 0.543625L9.2112 1.95833H13.2487C14.1231 1.95833 14.832 2.66722 14.832 3.54167V6.70833H15.6237C15.8898 6.70836 16.1381 6.84209 16.2846 7.06426C16.431 7.28643 16.4561 7.56733 16.3512 7.81192L13.9762 13.3536C13.8515 13.6446 13.5653 13.8334 13.2487 13.8334ZM4.2712 8.29167L2.57466 12.25H12.727L14.4235 8.29167H4.2712ZM2.16536 3.54167V9.18625L3.02116 7.18808C3.14591 6.89706 3.43207 6.70837 3.7487 6.70833H13.2487V3.54167H2.16536Z" fill="#6A7BFF"/>
</svg>
