<svg width="24" height="24" viewBox="0 0 24 24" fill="none" xmlns="http://www.w3.org/2000/svg">
  <g clip-path="url(#clip0_325_1490)">
    <path d="M2 1.5L8.5 1L16 1.5L17 6L16.5 10.5L14 11L11.5 13L10.5 15V17.5L11.5 20.5L16 23L8.75 22.75L1.5 22.5L1 10.5L2 1.5Z" fill="white" fill-opacity="0.2"/>
    <path d="M4.61719 5.67041H13.0547C13.443 5.67041 13.7578 5.3556 13.7578 4.96729C13.7578 4.57897 13.443 4.26416 13.0547 4.26416H4.61719C4.22887 4.26416 3.91406 4.57897 3.91406 4.96729C3.91406 5.3556 4.22887 5.67041 4.61719 5.67041Z" fill="white"/>
    <path d="M4.61719 8.48291H13.0547C13.443 8.48291 13.7578 8.1681 13.7578 7.77979C13.7578 7.39147 13.443 7.07666 13.0547 7.07666H4.61719C4.22887 7.07666 3.91406 7.39147 3.91406 7.77979C3.91406 8.1681 4.22887 8.48291 4.61719 8.48291Z" fill="white"/>
    <path d="M7.42969 9.88916H4.61719C4.22887 9.88916 3.91406 10.204 3.91406 10.5923C3.91406 10.9806 4.22887 11.2954 4.61719 11.2954H7.42969C7.818 11.2954 8.13281 10.9806 8.13281 10.5923C8.13281 10.204 7.818 9.88916 7.42969 9.88916Z" fill="white"/>
    <path d="M7.42969 12.7017H4.61719C4.22887 12.7017 3.91406 13.0165 3.91406 13.4048C3.91406 13.7931 4.22887 14.1079 4.61719 14.1079H7.42969C7.818 14.1079 8.13281 13.7931 8.13281 13.4048C8.13281 13.0165 7.818 12.7017 7.42969 12.7017Z" fill="white"/>
    <path d="M17.2734 9.92422V3.53947C17.2734 1.61282 15.706 0.0454102 13.7794 0.0454102H3.8925C1.96584 0.0454102 0.398438 1.61282 0.398438 3.53947V20.4576C0.398438 22.3843 1.96584 23.9517 3.8925 23.9517H13.7794C14.1742 23.9517 14.5591 23.8857 14.9273 23.7573C19.3529 24.821 23.6016 21.4483 23.6016 16.9204C23.6016 13.2807 20.8216 10.2781 17.2734 9.92422ZM3.8925 22.5454C2.74125 22.5454 1.80469 21.6088 1.80469 20.4576V3.53947C1.80469 2.38822 2.74125 1.45166 3.8925 1.45166H13.7794C14.9306 1.45166 15.8672 2.38822 15.8672 3.53947V9.92422C12.319 10.2781 9.53906 13.2807 9.53906 16.9204C9.53906 19.2179 10.6469 21.2616 12.3562 22.5454H3.8925ZM16.5703 22.5454C13.4687 22.5454 10.9453 20.022 10.9453 16.9204C10.9453 13.8188 13.4687 11.2954 16.5703 11.2954C19.6719 11.2954 22.1953 13.8188 22.1953 16.9204C22.1953 20.022 19.6719 22.5454 16.5703 22.5454Z" fill="white"/>
    <path d="M18.6797 16.2173H17.2734V14.811C17.2734 14.4227 16.9586 14.1079 16.5703 14.1079C16.182 14.1079 15.8672 14.4227 15.8672 14.811V16.2173H14.4609C14.0726 16.2173 13.7578 16.5321 13.7578 16.9204C13.7578 17.3087 14.0726 17.6235 14.4609 17.6235H15.8672V19.0298C15.8672 19.4181 16.182 19.7329 16.5703 19.7329C16.9586 19.7329 17.2734 19.4181 17.2734 19.0298V17.6235H18.6797C19.068 17.6235 19.3828 17.3087 19.3828 16.9204C19.3828 16.5321 19.068 16.2173 18.6797 16.2173Z" fill="white"/>
  </g>
  <defs>
    <clipPath id="clip0_325_1490">
      <rect width="24" height="24" fill="white"/>
    </clipPath>
  </defs>
</svg>