<svg xmlns="http://www.w3.org/2000/svg" width="28" height="28" viewBox="0 0 28 28">
  <g id="design_services-24px" transform="translate(0.208 0.208)">
    <g id="Group_1102" data-name="Group 1102" transform="translate(0 0)">
      <rect id="Rectangle_305" data-name="Rectangle 305" width="28" height="28" transform="translate(-0.208 -0.208)" fill="none"/>
    </g>
    <g id="Group_1104" data-name="Group 1104" transform="translate(3.476 3.255)">
      <g id="Group_1103" data-name="Group 1103">
        <path id="Path_186" data-name="Path 186" d="M18.34,12.852l1.819-1.819L15.814,6.689,13.995,8.508,9.2,3.723a2.322,2.322,0,0,0-3.279,0l-2.2,2.2a2.322,2.322,0,0,0,0,3.279L8.5,13.988,3,19.5v4.345H7.345l5.515-5.515,4.785,4.785a2.32,2.32,0,0,0,3.279,0l2.2-2.2a2.322,2.322,0,0,0,0-3.279Zm-8.18-.51-4.8-4.785,2.19-2.2h0L9.025,6.828,7.657,8.206,9.291,9.84,10.67,8.461l1.68,1.68Zm9.13,9.141L14.5,16.7l2.2-2.2,1.68,1.68-1.379,1.379,1.634,1.634,1.379-1.379,1.471,1.471Z" transform="translate(-3 -2.994)" fill="#fff"/>
        <path id="Path_187" data-name="Path 187" d="M21.595,7.68a1.154,1.154,0,0,0,0-1.634L18.884,3.336a1.169,1.169,0,0,0-1.634,0l-2.12,2.12L19.475,9.8Z" transform="translate(-1.076 -3.001)" fill="#fff"/>
      </g>
    </g>
  </g>
</svg>
