<svg id="dns-24px" xmlns="http://www.w3.org/2000/svg" width="20" height="20" viewBox="0 0 20 20">
  <path id="Path_64" data-name="Path 64" d="M0,0H20V20H0Z" fill="none"/>
  <path id="Path_65" data-name="Path 65" d="M16.222,10.778H3.778A.78.78,0,0,0,3,11.556v4.667A.78.78,0,0,0,3.778,17H16.222A.78.78,0,0,0,17,16.222V11.556A.78.78,0,0,0,16.222,10.778ZM6.111,15.444a1.556,1.556,0,1,1,1.556-1.556A1.56,1.56,0,0,1,6.111,15.444ZM16.222,3H3.778A.78.78,0,0,0,3,3.778V8.444a.78.78,0,0,0,.778.778H16.222A.78.78,0,0,0,17,8.444V3.778A.78.78,0,0,0,16.222,3ZM6.111,7.667A1.556,1.556,0,1,1,7.667,6.111,1.56,1.56,0,0,1,6.111,7.667Z" fill="#6a7bff"/>
</svg>
