<svg width="19" height="19" viewBox="0 0 19 19" fill="none" xmlns="http://www.w3.org/2000/svg">
<path d="M14.2487 15.8334H2.3737C2.16358 15.8355 1.96152 15.7526 1.81346 15.6035C1.6654 15.4544 1.58393 15.2518 1.58757 15.0417H1.58203V3.95833C1.58203 3.08388 2.29091 2.375 3.16536 2.375H7.91536C8.09219 2.37517 8.26387 2.43453 8.40303 2.54362L10.2112 3.95833H14.2487C15.1231 3.95833 15.832 4.66722 15.832 5.54167V8.70833H16.6237C16.8898 8.70836 17.1381 8.84209 17.2846 9.06426C17.431 9.28643 17.4561 9.56733 17.3512 9.81192L14.9762 15.3536C14.8515 15.6446 14.5653 15.8334 14.2487 15.8334ZM5.2712 10.2917L3.57466 14.25H13.727L15.4235 10.2917H5.2712ZM3.16536 5.54167V11.1862L4.02116 9.18808C4.14591 8.89706 4.43207 8.70837 4.7487 8.70833H14.2487V5.54167H3.16536Z" fill="#6A7BFF"/>
</svg>
