<svg width="48" height="19" viewBox="0 0 48 19" fill="none" xmlns="http://www.w3.org/2000/svg">
<path d="M9.83566 19C8.29923 19 6.90248 18.7226 5.78509 18.1679C4.59785 17.6131 3.68996 16.9197 2.92175 16.0182C2.15354 15.1168 1.59484 14.0766 1.24565 12.9671C0.896463 11.8577 0.686951 10.6788 0.686951 9.49999C0.686951 8.32116 0.896463 7.14233 1.24565 6.03284C1.59484 4.92335 2.22337 3.88321 2.99159 2.98175C3.7598 2.08029 4.73752 1.31752 5.92476 0.832117C7.112 0.277373 8.43891 0 10.0452 0C11.3022 0 12.3498 0.138687 13.1879 0.485402C14.0957 0.762774 14.7941 1.17883 15.4227 1.66423C16.0512 2.14963 16.4702 2.63503 16.8892 3.18978C17.2384 3.74452 17.5178 4.22992 17.7273 4.71533C17.9368 5.20073 18.0765 5.75547 18.2162 6.37956H14.7941C14.4449 5.9635 14.3053 5.54744 14.0957 5.27007C13.8862 4.92335 13.6767 4.57664 13.3275 4.29927C12.9783 3.95255 12.5593 3.67518 12.0006 3.46715C11.4419 3.25912 10.7435 3.12044 9.9055 3.12044C8.92777 3.12044 8.08972 3.32846 7.32151 3.67518C6.62313 4.02189 5.9946 4.5073 5.50574 5.13138C5.01687 5.75547 4.66769 6.4489 4.45817 7.21167C4.24866 7.97445 4.10899 8.73722 4.10899 9.56934C4.10899 10.6788 4.3185 11.719 4.73752 12.6898C5.15655 13.6606 5.85492 14.4927 6.69297 15.1168C7.53102 15.7409 8.64842 16.0876 9.9055 16.0876C11.3721 16.0876 12.5593 15.6715 13.3974 14.9087C14.2354 14.0766 14.7243 13.0365 14.864 11.719H9.76582V9.01459H18.1463V10.4015C18.1463 12.3431 17.7971 13.9379 17.0289 15.1861C16.2607 16.5036 15.283 17.4744 14.0259 18.0985C12.7688 18.6533 11.3721 19 9.83566 19Z" fill="white"/>
<path d="M25.9904 18.9999C24.5238 18.9999 23.2667 18.6532 22.289 18.0291C21.2414 17.405 20.4732 16.5036 19.9843 15.4634C19.4256 14.4233 19.2161 13.3138 19.2161 12.135C19.2161 10.9561 19.4955 9.84666 19.9843 8.80651C20.543 7.76637 21.3113 6.93425 22.289 6.24082C23.3365 5.61673 24.5238 5.27002 25.9904 5.27002C27.4569 5.27002 28.714 5.61673 29.6917 6.24082C30.7393 6.86491 31.5075 7.76637 31.9964 8.80651C32.4852 9.84666 32.7646 10.9561 32.7646 12.135C32.7646 13.3138 32.4852 14.4233 31.9964 15.4634C31.4377 16.5036 30.6695 17.3357 29.6917 18.0291C28.714 18.7226 27.4569 18.9999 25.9904 18.9999ZM25.9904 16.2262C26.7586 16.2262 27.3871 16.0182 27.876 15.6715C28.3648 15.2554 28.7839 14.77 29.0632 14.1459C29.3426 13.5218 29.4822 12.8284 29.4822 12.135C29.4822 11.3722 29.3426 10.7481 29.0632 10.124C28.7839 9.49994 28.4347 9.01454 27.876 8.59848C27.3871 8.18243 26.7586 8.04374 25.9904 8.04374C25.2221 8.04374 24.5936 8.25177 24.1047 8.59848C23.6159 9.01454 23.1969 9.49994 22.9175 10.124C22.6382 10.7481 22.4985 11.4415 22.4985 12.135C22.4985 12.8284 22.6382 13.5218 22.9175 14.1459C23.1969 14.77 23.546 15.2554 24.1047 15.6715C24.6634 16.0875 25.292 16.2262 25.9904 16.2262Z" fill="white"/>
<path d="M40.5389 18.9999C39.0723 18.9999 37.8152 18.6532 36.8375 18.0291C35.7899 17.405 35.0217 16.5036 34.5329 15.4634C33.9742 14.4233 33.7646 13.3138 33.7646 12.135C33.7646 10.9561 34.044 9.84666 34.5329 8.80651C35.0916 7.76637 35.8598 6.93425 36.8375 6.24082C37.8851 5.61673 39.0723 5.27002 40.5389 5.27002C42.0055 5.27002 43.2625 5.61673 44.2403 6.24082C45.2878 6.86491 46.056 7.76637 46.5449 8.80651C47.0338 9.84666 47.3131 10.9561 47.3131 12.135C47.3131 13.3138 47.0338 14.4233 46.5449 15.4634C45.9862 16.5036 45.218 17.3357 44.2403 18.0291C43.2625 18.7226 42.0055 18.9999 40.5389 18.9999ZM40.5389 16.2262C41.3071 16.2262 41.9356 16.0182 42.4245 15.6715C42.9134 15.2554 43.3324 14.77 43.6117 14.1459C43.8911 13.5218 44.0308 12.8284 44.0308 12.135C44.0308 11.3722 43.8911 10.7481 43.6117 10.124C43.3324 9.49994 42.9832 9.01454 42.4245 8.59848C41.9356 8.18243 41.3071 8.04374 40.5389 8.04374C39.7707 8.04374 39.1421 8.25177 38.6533 8.59848C38.1644 9.01454 37.7454 9.49994 37.466 10.124C37.1867 10.7481 37.047 11.4415 37.047 12.135C37.047 12.8284 37.1867 13.5218 37.466 14.1459C37.7454 14.77 38.0946 15.2554 38.6533 15.6715C39.212 16.0875 39.8405 16.2262 40.5389 16.2262Z" fill="white"/>
</svg>
