<svg width="24" height="24" viewBox="0 0 24 24" fill="none" xmlns="http://www.w3.org/2000/svg">
<path opacity="0.2" d="M20.25 10.8319V19.5C20.25 19.6989 20.171 19.8897 20.0303 20.0303C19.8897 20.171 19.6989 20.25 19.5 20.25H15C14.8011 20.25 14.6103 20.171 14.4697 20.0303C14.329 19.8897 14.25 19.6989 14.25 19.5V15C14.25 14.8011 14.171 14.6103 14.0303 14.4697C13.8897 14.329 13.6989 14.25 13.5 14.25H10.5C10.3011 14.25 10.1103 14.329 9.96967 14.4697C9.82902 14.6103 9.75 14.8011 9.75 15V19.5C9.75 19.6989 9.67098 19.8897 9.53033 20.0303C9.38968 20.171 9.19891 20.25 9 20.25H4.5C4.30109 20.25 4.11032 20.171 3.96967 20.0303C3.82902 19.8897 3.75 19.6989 3.75 19.5V10.8319C3.75001 10.7273 3.77187 10.624 3.81416 10.5284C3.85646 10.4328 3.91827 10.3472 3.99562 10.2769L11.4956 3.19499C11.6337 3.06929 11.8137 2.99963 12.0005 2.99963C12.1872 2.99963 12.3672 3.06929 12.5053 3.19499L20.0053 10.2769C20.0825 10.3472 20.1441 10.433 20.1863 10.5285C20.2284 10.6241 20.2501 10.7274 20.25 10.8319Z" fill="white"/>
<path d="M20.5153 9.72843L13.0153 2.65218C13.0116 2.64898 13.0082 2.64554 13.005 2.64187C12.7289 2.39074 12.369 2.25159 11.9958 2.25159C11.6225 2.25159 11.2627 2.39074 10.9866 2.64187L10.9763 2.65218L3.48469 9.72843C3.33187 9.86895 3.20989 10.0397 3.12646 10.2298C3.04303 10.4199 2.99997 10.6252 3 10.8328V19.5C3 19.8978 3.15804 20.2793 3.43934 20.5607C3.72064 20.842 4.10218 21 4.5 21H9C9.39782 21 9.77936 20.842 10.0607 20.5607C10.342 20.2793 10.5 19.8978 10.5 19.5V15H13.5V19.5C13.5 19.8978 13.658 20.2793 13.9393 20.5607C14.2206 20.842 14.6022 21 15 21H19.5C19.8978 21 20.2794 20.842 20.5607 20.5607C20.842 20.2793 21 19.8978 21 19.5V10.8328C21 10.6252 20.957 10.4199 20.8735 10.2298C20.7901 10.0397 20.6681 9.86895 20.5153 9.72843ZM19.5 19.5H15V15C15 14.6022 14.842 14.2206 14.5607 13.9393C14.2794 13.658 13.8978 13.5 13.5 13.5H10.5C10.1022 13.5 9.72064 13.658 9.43934 13.9393C9.15804 14.2206 9 14.6022 9 15V19.5H4.5V10.8328L4.51031 10.8234L12 3.74999L19.4906 10.8216L19.5009 10.8309L19.5 19.5Z" fill="white"/>
</svg> 