<svg id="local_offer-24px_2_" data-name="local_offer-24px (2)" xmlns="http://www.w3.org/2000/svg" width="24" height="24" viewBox="0 0 24 24">
  <path id="Path_233" data-name="Path 233" d="M0,0H24V24H0Z" fill="none"/>
  <path id="Path_234" data-name="Path 234" d="M21.41,11.58l-9-9A1.987,1.987,0,0,0,11,2H4A2.006,2.006,0,0,0,2,4v7a2,2,0,0,0,.59,1.42l9,9A1.987,1.987,0,0,0,13,22a1.955,1.955,0,0,0,1.41-.59l7-7A1.955,1.955,0,0,0,22,13,2.02,2.02,0,0,0,21.41,11.58ZM13,20.01,4,11V4h7V3.99l9,9Z" fill="#fff"/>
  <circle id="Ellipse_64" data-name="Ellipse 64" cx="1.5" cy="1.5" r="1.5" transform="translate(5 5)" fill="#fff"/>
</svg>
