<svg id="local_mall-24px_2_" data-name="local_mall-24px (2)" xmlns="http://www.w3.org/2000/svg" width="44.089" height="46.145" viewBox="0 0 44.089 46.145">
  <path id="Path_156" data-name="Path 156" d="M0,0H44.089V46.145H0Z" fill="none"/>
  <path id="Path_157" data-name="Path 157" d="M37.079,11.3h-4.26A10.484,10.484,0,0,0,22.169,1,10.484,10.484,0,0,0,11.52,11.3H7.26a4.186,4.186,0,0,0-4.239,4.121L3,40.149A4.2,4.2,0,0,0,7.26,44.27H37.079a4.2,4.2,0,0,0,4.26-4.121V15.423A4.2,4.2,0,0,0,37.079,11.3ZM22.169,5.121a6.28,6.28,0,0,1,6.39,6.181H15.779A6.28,6.28,0,0,1,22.169,5.121Zm0,20.6a10.484,10.484,0,0,1-10.65-10.3h4.26a6.393,6.393,0,0,0,12.779,0h4.26A10.484,10.484,0,0,1,22.169,25.726Z" transform="translate(-0.125 -0.042)" fill="#6a6975"/>
</svg>
