<?xml version="1.0" encoding="utf-8"?>
<!-- Generator: Adobe Illustrator 25.2.0, SVG Export Plug-In . SVG Version: 6.00 Build 0)  -->
<svg version="1.1" id="Layer_1" xmlns="http://www.w3.org/2000/svg" xmlns:xlink="http://www.w3.org/1999/xlink" x="0px" y="0px"
	 viewBox="0 0 187.6 48.3" style="enable-background:new 0 0 187.6 48.3;" xml:space="preserve">
<style type="text/css">
	.st0{fill:#FFFFFF;}
</style>
<g>
	<path class="st0" d="M23.9,37.8c-2.2,0-4.2-0.4-5.8-1.2c-1.7-0.8-3-1.8-4.1-3.1c-1.1-1.3-1.9-2.8-2.4-4.4c-0.5-1.6-0.8-3.3-0.8-5
		c0-1.7,0.3-3.4,0.8-5c0.5-1.6,1.4-3.1,2.5-4.4c1.1-1.3,2.5-2.4,4.2-3.1c1.7-0.8,3.6-1.2,5.9-1.2c1.8,0,3.3,0.2,4.5,0.7
		c1.3,0.4,2.3,1,3.2,1.7c0.9,0.7,1.5,1.4,2.1,2.2c0.5,0.8,0.9,1.5,1.2,2.2c0.3,0.7,0.5,1.5,0.7,2.4h-4.9C30.5,19,30.3,18.4,30,18
		c-0.3-0.5-0.6-1-1.1-1.4c-0.5-0.5-1.1-0.9-1.9-1.2c-0.8-0.3-1.8-0.5-3-0.5c-1.4,0-2.6,0.3-3.7,0.8c-1,0.5-1.9,1.2-2.6,2.1
		c-0.7,0.9-1.2,1.9-1.5,3c-0.3,1.1-0.5,2.2-0.5,3.4c0,1.6,0.3,3.1,0.9,4.5c0.6,1.4,1.6,2.6,2.8,3.5c1.2,0.9,2.8,1.4,4.6,1.4
		c2.1,0,3.8-0.6,5-1.7c1.2-1.2,1.9-2.7,2.1-4.6h-7.3v-3.9h12v2c0,2.8-0.5,5.1-1.6,6.9c-1.1,1.9-2.5,3.3-4.3,4.2
		C28.1,37.3,26.1,37.8,23.9,37.8z"/>
	<path class="st0" d="M47.3,37.8c-2.1,0-3.9-0.5-5.3-1.4c-1.5-0.9-2.6-2.2-3.3-3.7c-0.8-1.5-1.1-3.1-1.1-4.8s0.4-3.3,1.1-4.8
		c0.8-1.5,1.9-2.7,3.3-3.7c1.5-0.9,3.2-1.4,5.3-1.4c2.1,0,3.9,0.5,5.3,1.4c1.5,0.9,2.6,2.2,3.3,3.7s1.1,3.1,1.1,4.8
		s-0.4,3.3-1.1,4.8c-0.8,1.5-1.9,2.7-3.3,3.7C51.2,37.4,49.4,37.8,47.3,37.8z M47.3,33.8c1.1,0,2-0.3,2.7-0.8
		c0.7-0.6,1.3-1.3,1.7-2.2c0.4-0.9,0.6-1.9,0.6-2.9c0-1.1-0.2-2-0.6-2.9c-0.4-0.9-0.9-1.6-1.7-2.2c-0.7-0.6-1.6-0.8-2.7-0.8
		c-1.1,0-2,0.3-2.7,0.8c-0.7,0.6-1.3,1.3-1.7,2.2c-0.4,0.9-0.6,1.9-0.6,2.9c0,1,0.2,2,0.6,2.9c0.4,0.9,0.9,1.6,1.7,2.2
		C45.4,33.6,46.3,33.8,47.3,33.8z"/>
	<path class="st0" d="M68.8,37.8c-2.1,0-3.9-0.5-5.3-1.4c-1.5-0.9-2.6-2.2-3.3-3.7c-0.8-1.5-1.1-3.1-1.1-4.8s0.4-3.3,1.1-4.8
		c0.8-1.5,1.9-2.7,3.3-3.7c1.5-0.9,3.2-1.4,5.3-1.4c2.1,0,3.9,0.5,5.3,1.4c1.5,0.9,2.6,2.2,3.3,3.7s1.1,3.1,1.1,4.8
		s-0.4,3.3-1.1,4.8c-0.8,1.5-1.9,2.7-3.3,3.7C72.7,37.4,70.9,37.8,68.8,37.8z M68.8,33.8c1.1,0,2-0.3,2.7-0.8
		c0.7-0.6,1.3-1.3,1.7-2.2c0.4-0.9,0.6-1.9,0.6-2.9c0-1.1-0.2-2-0.6-2.9c-0.4-0.9-0.9-1.6-1.7-2.2c-0.7-0.6-1.6-0.8-2.7-0.8
		c-1.1,0-2,0.3-2.7,0.8c-0.7,0.6-1.3,1.3-1.7,2.2c-0.4,0.9-0.6,1.9-0.6,2.9c0,1,0.2,2,0.6,2.9c0.4,0.9,0.9,1.6,1.7,2.2
		C66.9,33.6,67.8,33.8,68.8,33.8z"/>
	<path class="st0" d="M85.2,37.5V15.1H77v-4.2h21.3v4.2h-8.2v22.4H85.2z"/>
	<path class="st0" d="M101.1,37.5l-6-19.1h4.8l3.8,13.1l4.1-13.1h4.4l4.1,13.1l3.8-13.1h4.8l-6,19.1h-5.1L110,25.3l-3.8,12.1H101.1z
		"/>
	<path class="st0" d="M134.6,37.8c-1.6,0-3-0.3-4.2-0.8c-1.2-0.6-2.2-1.3-3-2.3c-0.8-0.9-1.4-2-1.7-3.2c-0.4-1.2-0.6-2.4-0.6-3.6
		s0.2-2.4,0.6-3.6c0.4-1.2,0.9-2.2,1.7-3.2c0.8-1,1.7-1.7,2.9-2.3c1.2-0.6,2.6-0.8,4.2-0.8c1.7,0,3.3,0.4,4.6,1.2
		c1.3,0.8,2.4,1.9,3.1,3.4c0.7,1.5,1.1,3.3,1.1,5.5v1.2h-13.3c0.1,1.3,0.5,2.4,1.3,3.4c0.8,0.9,1.9,1.4,3.3,1.4c0.8,0,1.5-0.1,2-0.4
		c0.5-0.3,0.9-0.6,1.2-0.9c0.3-0.3,0.6-0.8,0.8-1.3h4.4c-0.2,0.8-0.5,1.6-0.8,2.2c-0.3,0.6-0.8,1.3-1.4,1.9
		c-0.6,0.6-1.4,1.2-2.4,1.6C137.3,37.6,136.1,37.8,134.6,37.8z M129.9,26.1h8.7c-0.1-1.5-0.5-2.6-1.3-3.3c-0.8-0.7-1.8-1.1-2.9-1.1
		c-1.2,0-2.2,0.4-3.1,1.2C130.5,23.7,130,24.8,129.9,26.1z"/>
	<path class="st0" d="M154.6,37.8c-1.6,0-3-0.3-4.2-0.8c-1.2-0.6-2.2-1.3-3-2.3c-0.8-0.9-1.4-2-1.7-3.2c-0.4-1.2-0.6-2.4-0.6-3.6
		s0.2-2.4,0.6-3.6c0.4-1.2,0.9-2.2,1.7-3.2c0.8-1,1.7-1.7,2.9-2.3c1.2-0.6,2.6-0.8,4.2-0.8c1.7,0,3.3,0.4,4.6,1.2
		c1.3,0.8,2.4,1.9,3.1,3.4c0.7,1.5,1.1,3.3,1.1,5.5v1.2h-13.3c0.1,1.3,0.5,2.4,1.3,3.4c0.8,0.9,1.9,1.4,3.3,1.4c0.8,0,1.5-0.1,2-0.4
		c0.5-0.3,0.9-0.6,1.2-0.9c0.3-0.3,0.6-0.8,0.8-1.3h4.4c-0.2,0.8-0.5,1.6-0.8,2.2c-0.3,0.6-0.8,1.3-1.4,1.9
		c-0.6,0.6-1.4,1.2-2.4,1.6C157.3,37.6,156.1,37.8,154.6,37.8z M149.9,26.1h8.7c-0.1-1.5-0.5-2.6-1.3-3.3c-0.8-0.7-1.8-1.1-2.9-1.1
		c-1.2,0-2.2,0.4-3.1,1.2C150.5,23.7,150.1,24.8,149.9,26.1z"/>
	<path class="st0" d="M173.8,37.8c-1.3,0-2.4-0.2-3.2-0.6c-0.8-0.4-1.5-0.9-2-1.5c-0.5-0.6-0.8-1.3-1-2.1c-0.2-0.7-0.3-1.5-0.3-2.2
		v-9.3h-3.3v-3.9h3.3v-4.8h4.8v4.8h4.3v3.9h-4.3v9.1c0,1.7,1,2.6,2.9,2.6c0.5,0,1.1-0.1,1.9-0.2v3.7
		C175.7,37.7,174.7,37.8,173.8,37.8z"/>
</g>
</svg>
