<svg xmlns="http://www.w3.org/2000/svg" width="113.5" height="28.383" viewBox="0 0 113.5 28.383">
  <g id="Group_1273" data-name="Group 1273" transform="translate(-284.793 -321.211)">
    <path id="Path_113" data-name="Path 113" d="M457.559,359.9v-1.665h-5.4V374.1a3.194,3.194,0,0,0,3.194,3.193h2.206v-8.678c.046-.242.109-.584.2-1.081.071-.388.143-.777.189-1.028a3.351,3.351,0,0,1,5-1.265l3.187-4.359a8.735,8.735,0,0,0-8.58-.986Z" transform="translate(-126.285 -27.935)" fill="#2e2e33"/>
    <path id="Path_114" data-name="Path 114" d="M525.321,359.121a8.7,8.7,0,0,0-3.346.667v-1.452h-2.206a3.194,3.194,0,0,0-3.194,3.194V377.4h5.4v-9.531a3.346,3.346,0,0,1,6.692,0V377.4h2.207a3.084,3.084,0,0,0,3.193-2.946h0v-6.659h0A8.755,8.755,0,0,0,525.321,359.121Z" transform="translate(-174.89 -28.012)" fill="#2e2e33"/>
    <path id="Path_115" data-name="Path 115" d="M291.8,330.3H289.69a3.194,3.194,0,0,0-3.194,3.193V335.7h5.284v4.208a4.292,4.292,0,0,1-4.287,4.288h-2.7v5.4h2.7a9.7,9.7,0,0,0,9.687-9.688V335.7h5.284v-5.4h-5.237a4.291,4.291,0,0,1,4.241-3.687h2.7v-5.4h-2.7A9.7,9.7,0,0,0,291.8,330.3Z" fill="#2e2e33"/>
    <path id="Path_116" data-name="Path 116" d="M378.714,361.426V368.6a3.346,3.346,0,1,1-6.692,0V358.233h-2.207a3.193,3.193,0,0,0-3.193,3.193V368.6a8.743,8.743,0,0,0,12.092,8.079v.616h5.4V358.233h-2.206A3.194,3.194,0,0,0,378.714,361.426Z" transform="translate(-61.744 -27.935)" fill="#2e2e33"/>
    <path id="Path_117" data-name="Path 117" d="M602.556,361.426v15.868h5.4V358.233H605.75A3.194,3.194,0,0,0,602.556,361.426Z" transform="translate(-239.766 -27.935)" fill="#2e2e33"/>
    <path id="Path_118" data-name="Path 118" d="M693.385,367.031a8.742,8.742,0,0,0-12.051-7.244v-1.452h-2.207a3.193,3.193,0,0,0-3.193,3.194V377.4h5.4v-9.531a3.346,3.346,0,0,1,6.692,0V377.4h2.207a3.193,3.193,0,0,0,3.193-3.179h0v-7.186Z" transform="translate(-295.133 -28.012)" fill="#6a7bff"/>
    <path id="Path_119" data-name="Path 119" d="M639.245,361.426v15.868h5.4V358.233h-2.207A3.193,3.193,0,0,0,639.245,361.426Z" transform="translate(-267.45 -27.935)" fill="#6a7bff"/>
  </g>
</svg>
