<svg width="21" height="18" viewBox="0 0 21 18" fill="none" xmlns="http://www.w3.org/2000/svg">
<path opacity="0.2" d="M19.7857 5.9662C19.7857 11.8591 10.5 16.8591 10.5 16.8591C10.5 16.8591 1.21431 11.8591 1.21431 5.9662C1.21431 4.68748 1.72228 3.46113 2.62647 2.55694C3.53067 1.65275 4.75702 1.14478 6.03574 1.14478C8.0527 1.14478 9.78038 2.24388 10.5 4.00192C11.2197 2.24388 12.9473 1.14478 14.9643 1.14478C16.243 1.14478 17.4694 1.65275 18.3736 2.55694C19.2778 3.46113 19.7857 4.68748 19.7857 5.9662Z" fill="white"/>
<path d="M14.9643 0.430542C13.1205 0.430542 11.5063 1.2234 10.5 2.56358C9.49375 1.2234 7.87946 0.430542 6.03571 0.430542C4.56806 0.432196 3.16099 1.01595 2.1232 2.05374C1.08541 3.09153 0.501654 4.4986 0.5 5.96626C0.5 12.2163 9.76696 17.2752 10.1616 17.4841C10.2656 17.5401 10.3819 17.5694 10.5 17.5694C10.6181 17.5694 10.7344 17.5401 10.8384 17.4841C11.233 17.2752 20.5 12.2163 20.5 5.96626C20.4983 4.4986 19.9146 3.09153 18.8768 2.05374C17.839 1.01595 16.4319 0.432196 14.9643 0.430542ZM10.5 16.0377C8.86964 15.0877 1.92857 10.76 1.92857 5.96626C1.92999 4.87741 2.36316 3.83357 3.13309 3.06363C3.90302 2.2937 4.94687 1.86053 6.03571 1.85911C7.77232 1.85911 9.23036 2.78411 9.83929 4.26983C9.8931 4.40084 9.98465 4.51289 10.1023 4.59175C10.2199 4.6706 10.3584 4.71271 10.5 4.71271C10.6416 4.71271 10.7801 4.6706 10.8977 4.59175C11.0154 4.51289 11.1069 4.40084 11.1607 4.26983C11.7696 2.78144 13.2277 1.85911 14.9643 1.85911C16.0531 1.86053 17.097 2.2937 17.8669 3.06363C18.6368 3.83357 19.07 4.87741 19.0714 5.96626C19.0714 10.7529 12.1286 15.0868 10.5 16.0377Z" fill="white"/>
</svg> 