<svg width="24" height="24" viewBox="0 0 24 24" fill="none" xmlns="http://www.w3.org/2000/svg">
  <path opacity="0.2" d="M19.5 18H4.5C4.36873 17.9992 4.23997 17.964 4.12658 17.8978C4.01319 17.8317 3.91915 17.7369 3.85386 17.6231C3.78857 17.5092 3.75431 17.3801 3.75451 17.2489C3.75471 17.1176 3.78936 16.9887 3.855 16.875C4.47281 15.8062 5.25 13.1072 5.25 9.75C5.25 7.95979 5.96116 6.2429 7.22703 4.97703C8.4929 3.71116 10.2098 3 12 3C13.7902 3 15.5071 3.71116 16.773 4.97703C18.0388 6.2429 18.75 7.95979 18.75 9.75C18.75 13.1081 19.5281 15.8062 20.1469 16.875C20.2126 16.9888 20.2472 17.1179 20.2474 17.2493C20.2475 17.3808 20.213 17.5099 20.1475 17.6239C20.082 17.7378 19.9877 17.8325 19.8741 17.8985C19.7604 17.9645 19.6314 17.9995 19.5 18Z" fill="white"/>
  <path d="M20.7937 16.4944C20.2734 15.5981 19.5 13.0622 19.5 9.75C19.5 7.76088 18.7098 5.85322 17.3033 4.4467C15.8968 3.04018 13.9891 2.25 12 2.25C10.0109 2.25 8.10322 3.04018 6.6967 4.4467C5.29017 5.85322 4.5 7.76088 4.5 9.75C4.5 13.0631 3.72562 15.5981 3.20531 16.4944C3.07244 16.7222 3.002 16.9811 3.00109 17.2449C3.00019 17.5086 3.06885 17.768 3.20015 17.9967C3.33146 18.2255 3.52076 18.4156 3.74897 18.5478C3.97718 18.6801 4.23623 18.7498 4.5 18.75H8.32593C8.49897 19.5967 8.95914 20.3577 9.62862 20.9042C10.2981 21.4507 11.1358 21.7492 12 21.7492C12.8642 21.7492 13.7019 21.4507 14.3714 20.9042C15.0408 20.3577 15.501 19.5967 15.6741 18.75H19.5C19.7637 18.7496 20.0226 18.6798 20.2507 18.5475C20.4788 18.4151 20.6679 18.225 20.7991 17.9963C20.9303 17.7676 20.9989 17.5083 20.998 17.2446C20.997 16.9809 20.9266 16.7222 20.7937 16.4944ZM12 20.25C11.5348 20.2499 11.0811 20.1055 10.7014 19.8369C10.3216 19.5683 10.0344 19.1886 9.87937 18.75H14.1206C13.9656 19.1886 13.6784 19.5683 13.2986 19.8369C12.9189 20.1055 12.4652 20.2499 12 20.25ZM4.5 17.25C5.22187 16.0087 6 13.1325 6 9.75C6 8.1587 6.63214 6.63258 7.75736 5.50736C8.88257 4.38214 10.4087 3.75 12 3.75C13.5913 3.75 15.1174 4.38214 16.2426 5.50736C17.3679 6.63258 18 8.1587 18 9.75C18 13.1297 18.7762 16.0059 19.5 17.25H4.5Z" fill="white"/>
</svg>