<svg xmlns="http://www.w3.org/2000/svg" width="17" height="17" viewBox="0 0 17 17">
  <g id="verified-24px" transform="translate(-0.5 -0.5)">
    <g id="Group_11" data-name="Group 11">
      <rect id="Rectangle_17" data-name="Rectangle 17" width="17" height="17" transform="translate(0.5 0.5)" fill="none"/>
    </g>
    <g id="Group_12" data-name="Group 12" transform="translate(0.708 1.063)">
      <path id="Path_24" data-name="Path 24" d="M16.583,8.938,14.855,6.961,15.1,4.347l-2.557-.581L11.2,1.5,8.792,2.534,6.383,1.5,5.045,3.76l-2.557.574.241,2.621L1,8.938l1.728,1.976-.241,2.621,2.557.581,1.339,2.26,2.408-1.041L11.2,16.368l1.339-2.26,2.557-.581-.241-2.614ZM7.439,12.281l-2.692-2.7L5.8,8.534l1.643,1.65,4.144-4.158,1.048,1.048Z" transform="translate(-1 -1.5)" fill="#6a7bff"/>
    </g>
  </g>
</svg>
