<svg xmlns="http://www.w3.org/2000/svg" x="0px" y="0px"
width="32" height="32"
viewBox="0 0 172 172"
style=" fill:#000000;"><g fill="none" fill-rule="nonzero" stroke="none" stroke-width="1" stroke-linecap="butt" stroke-linejoin="miter" stroke-miterlimit="10" stroke-dasharray="" stroke-dashoffset="0" font-family="none" font-weight="none" font-size="none" text-anchor="none" style="mix-blend-mode: normal"><path d="M0,172v-172h172v172z" fill="none"></path><g fill="#ffffff"><path d="M86.50391,21.5c-27.28887,0 -54.25391,18.18539 -54.25391,47.62964c0,18.72113 10.52685,29.36304 16.91235,29.36304c2.63375,0 4.15723,-7.342 4.15723,-9.41675c0,-2.4725 -6.30933,-7.74252 -6.30933,-18.03565c0,-21.38175 16.27693,-36.5332 37.34155,-36.5332c18.11375,0 31.51514,10.28582 31.51514,29.19507c0,14.12013 -5.66928,40.60645 -24.01953,40.60645c-6.622,0 -12.28272,-4.78384 -12.28272,-11.64234c0,-10.05125 6.4353,-19.78714 6.4353,-30.16089c0,-17.6085 -24.38696,-14.4139 -24.38696,6.86572c0,4.46662 0.5569,9.41062 2.55102,13.47949c-3.66575,15.79713 -10.41406,40.97547 -10.41406,57.25635c0,5.02562 0.7184,9.97071 1.19678,15.00171c0.903,1.0105 0.45578,0.90418 1.83716,0.39893c13.40525,-18.35025 12.16161,-23.58265 18.22461,-47.59815c3.27338,6.22425 11.73195,9.57422 18.43457,9.57422c28.24563,0 40.93188,-27.52689 40.93188,-52.34326c0,-26.40738 -22.81822,-43.64038 -47.87109,-43.64038z"></path></g></g></svg>