<svg width="24" height="24" viewBox="0 0 24 24" fill="none" xmlns="http://www.w3.org/2000/svg">
<g clip-path="url(#clip0_50_2650)">
<path d="M3.09378 10.3126H17.8503C17.8533 10.3127 17.8563 10.3131 17.8593 10.3131C17.8624 10.3131 17.8653 10.3127 17.8684 10.3126H20.9062C21.2945 10.3126 21.6093 9.99782 21.6093 9.60951V0.703121C21.6093 0.314811 21.2945 0 20.9062 0H3.09378C2.70547 0 2.39066 0.314811 2.39066 0.703121V9.60951C2.39066 9.99782 2.70547 10.3126 3.09378 10.3126ZM6.75661 1.40624H10.6546C9.11774 1.95932 8.01567 3.43132 8.01567 5.15631C8.01567 6.8813 9.11774 8.35331 10.6546 8.90639H6.75661C6.42188 7.53558 5.1677 6.28135 3.79694 5.94662V4.36601C5.1677 4.03123 6.42184 2.77705 6.75661 1.40624ZM20.2031 4.36596V5.94704C18.8324 6.28178 17.5784 7.53572 17.2435 8.90634H13.3454C14.8823 8.35326 15.9843 6.88126 15.9843 5.15627C15.9843 3.43128 14.8823 1.95927 13.3454 1.4062H17.2434C17.5781 2.77705 18.8323 4.03123 20.2031 4.36596ZM12 7.73447C10.5784 7.73447 9.42187 6.57793 9.42187 5.15631C9.42187 3.7347 10.5784 2.57816 12 2.57816C13.4215 2.57816 14.5781 3.7347 14.5781 5.15631C14.5781 6.57793 13.4215 7.73447 12 7.73447ZM3.7969 7.42168C4.43561 7.6973 5.0005 8.29964 5.26994 8.90639H3.7969V7.42168ZM18.7302 8.90639C18.9997 8.29978 19.5645 7.69767 20.2031 7.4221V8.90639H18.7302ZM20.2031 2.89091C19.5643 2.61528 18.9995 2.01299 18.73 1.40624H20.2031V2.89091ZM5.26994 1.40624C5.0005 2.01299 4.43561 2.61533 3.7969 2.89091V1.40624H5.26994Z" fill="white"/>
<path d="M23.8727 13.804L23.2347 12.8928C22.6132 12.005 21.4268 11.7237 20.4714 12.2356L15.8743 14.5717C15.8155 14.4316 15.7413 14.2967 15.6521 14.1693C15.3243 13.7012 14.8336 13.389 14.2703 13.2903L8.39399 12.2605C6.72854 11.9685 5.0477 12.3424 3.66133 13.3132L0.299948 15.6669C0.112027 15.7985 0.000137329 16.0134 0.000137329 16.2428V23.2968C0.000137329 23.5591 0.146011 23.7995 0.378604 23.9205C0.480791 23.9737 0.592165 24 0.703211 24C0.84496 24 0.986147 23.9571 1.10657 23.8728L7.37513 19.4833L14.1906 20.6778C14.7533 20.7764 15.3211 20.6502 15.7895 20.3223L23.7001 14.7832C23.8529 14.6763 23.9569 14.513 23.9893 14.3293C24.0216 14.1457 23.9797 13.9568 23.8727 13.804ZM14.9829 19.1704C14.8218 19.2831 14.6269 19.3265 14.4333 19.2927L7.33134 18.0481C7.14792 18.0158 6.95921 18.0579 6.80668 18.1647L1.40629 21.9462V16.6089L4.46786 14.4651C5.54701 13.7095 6.8551 13.4185 8.15118 13.6456L14.0275 14.6755C14.2202 14.7093 14.3881 14.816 14.5001 14.976C14.6111 15.1345 14.6543 15.3267 14.6217 15.5178C14.621 15.5213 14.6204 15.5248 14.6198 15.5283C14.5464 15.9251 14.1653 16.1904 13.767 16.1204C12.2403 15.8519 10.0264 15.4639 10.0264 15.4639C8.95462 15.2761 8.7119 16.6612 9.78369 16.849C9.78369 16.849 11.9971 17.2369 13.5234 17.5054C14.5598 17.6879 15.5572 17.0881 15.9074 16.1323L21.1159 13.4856C21.1214 13.4828 21.1269 13.4799 21.1324 13.477C21.4607 13.299 21.8693 13.3946 22.0828 13.6994L22.3176 14.0347L14.9829 19.1704Z" fill="white"/>
<rect x="3" y="1" width="18" height="8" fill="white" fill-opacity="0.2"/>
</g>
<defs>
<clipPath id="clip0_50_2650">
<rect width="24" height="24" fill="white"/>
</clipPath>
</defs>
</svg> 