<svg width="21" height="18" viewBox="0 0 21 18" fill="none" xmlns="http://www.w3.org/2000/svg">
<path d="M11.918 0.75C7.36214 0.75 3.66797 4.44417 3.66797 9H0.917969L4.4838 12.5658L4.54797 12.6942L8.2513 9H5.5013C5.5013 5.4525 8.37047 2.58333 11.918 2.58333C15.4655 2.58333 18.3346 5.4525 18.3346 9C18.3346 12.5475 15.4655 15.4167 11.918 15.4167C10.1488 15.4167 8.54464 14.6925 7.38964 13.5283L6.08797 14.83C7.58214 16.3242 9.63547 17.25 11.918 17.25C16.4738 17.25 20.168 13.5558 20.168 9C20.168 4.44417 16.4738 0.75 11.918 0.75ZM11.0013 5.33333V9.91667L14.8971 12.2267L15.603 11.0533L12.3763 9.1375V5.33333H11.0013Z" fill="#202766"/>
</svg>
