<svg width="20" height="20" viewBox="0 0 20 20" fill="none" xmlns="http://www.w3.org/2000/svg">
<path d="M16.4063 5.18752L15.7578 2.77347C15.737 2.69401 15.7006 2.61951 15.6507 2.55431C15.6008 2.48912 15.5382 2.43457 15.4669 2.39383C15.3957 2.35309 15.317 2.32696 15.2353 2.31704C15.1538 2.30708 15.0711 2.31353 14.9922 2.33596L10.1641 3.62502L13.9922 5.83595L16.4063 5.18752Z" fill="white" fill-opacity="0.1"/>
<path d="M8.55469 7.29686L4.73434 5.08594L2.92191 5.57033C2.84225 5.59119 2.76764 5.62759 2.70203 5.67741C2.63657 5.72723 2.58163 5.78948 2.54013 5.86063C2.49878 5.93177 2.47192 6.01035 2.46094 6.09195C2.4501 6.17351 2.45529 6.25644 2.4765 6.33594L3.125 8.74999L8.55469 7.29686Z" fill="white" fill-opacity="0.1"/>
<path fill-rule="evenodd" clip-rule="evenodd" d="M2.5 15.625V8.75C2.5 8.40482 2.77982 8.125 3.125 8.125H16.875C17.2202 8.125 17.5 8.40482 17.5 8.75V15.625C17.5 15.625 17.5 16.1428 17.1339 16.5089C17.1339 16.5089 16.7678 16.875 16.25 16.875H3.75C3.75 16.875 3.23223 16.875 2.86612 16.5089C2.86612 16.5089 2.5 16.1428 2.5 15.625ZM3.75 15.625H16.25V9.375H3.75V15.625Z" fill="white"/>
<path fill-rule="evenodd" clip-rule="evenodd" d="M1.87267 6.497C1.87267 6.497 1.80842 6.2561 1.8415 6.009C1.8415 6.009 1.87457 5.76189 1.99992 5.54638C1.99992 5.54638 2.12527 5.33086 2.32371 5.17993C2.32371 5.17993 2.52214 5.029 2.7601 4.96659L14.8215 1.73467C14.8215 1.73467 15.0624 1.66629 15.311 1.69659C15.311 1.69659 15.5596 1.72688 15.777 1.85113C15.777 1.85113 15.9944 1.97537 16.1468 2.17416C16.1468 2.17416 16.2991 2.37294 16.3614 2.61129L17.0098 5.02535L17.0099 5.02556C17.0529 5.18566 17.0304 5.35626 16.9476 5.49984C16.8648 5.64341 16.7283 5.7482 16.5682 5.79114L3.28692 9.35364C2.95361 9.44305 2.61091 9.24539 2.52139 8.91212L1.87295 6.49805L1.87267 6.497ZM3.08045 6.17484L3.56652 7.98446L15.6405 4.7458L15.1552 2.93922L3.08364 6.174L3.08045 6.17484Z" fill="white"/>
<path d="M13.6794 6.37701L13.6796 6.37716C13.7746 6.43204 13.8824 6.46094 13.9922 6.46094C14.0037 6.46094 14.0152 6.46062 14.0267 6.45998C14.2374 6.44833 14.4279 6.3312 14.5334 6.14852C14.5883 6.05349 14.6172 5.94568 14.6172 5.83594C14.6172 5.82442 14.6169 5.81291 14.6162 5.80141C14.6046 5.59077 14.4874 5.40023 14.3048 5.29472L14.3045 5.29457L10.4766 3.08378C10.3816 3.0289 10.2738 3 10.1641 3L10.1529 3.0001C10.1021 3.00101 10.0515 3.00812 10.0024 3.02127C9.84227 3.06415 9.70575 3.16888 9.62284 3.31242C9.56796 3.40745 9.53906 3.51526 9.53906 3.625L9.53916 3.63616C9.54007 3.68701 9.54718 3.73755 9.56033 3.78667C9.60321 3.94679 9.70794 4.08332 9.85148 4.16622L13.6794 6.37701Z" fill="white"/>
<path d="M4.42131 5.62688L8.24163 7.83782C8.33677 7.89288 8.44476 7.92188 8.55469 7.92188C8.56602 7.92188 8.57735 7.92157 8.58867 7.92095C8.79931 7.90948 8.98996 7.79252 9.09563 7.60994C9.15069 7.51479 9.17969 7.40681 9.17969 7.29688C9.17969 7.28554 9.17938 7.27421 9.17876 7.2629C9.16729 7.05225 9.05033 6.8616 8.86775 6.75593L5.04744 4.545C4.95229 4.48993 4.8443 4.46094 4.73438 4.46094C4.72304 4.46094 4.71171 4.46125 4.7004 4.46186C4.48975 4.47333 4.2991 4.59029 4.19343 4.77288C4.13837 4.86802 4.10938 4.97601 4.10938 5.08594C4.10938 5.09727 4.10968 5.1086 4.1103 5.11992C4.12177 5.33056 4.23873 5.52121 4.42131 5.62688Z" fill="white"/>
</svg> 