<svg id="settings-24px_2_" data-name="settings-24px (2)" xmlns="http://www.w3.org/2000/svg" width="20" height="20" viewBox="0 0 20 20">
  <path id="Path_109" data-name="Path 109" d="M0,0H20V20H0Z" fill="none"/>
  <path id="Path_110" data-name="Path 110" d="M15.611,10.744A5.642,5.642,0,0,0,15.658,10a4.607,4.607,0,0,0-.055-.744l1.6-1.251a.39.39,0,0,0,.094-.483L15.784,4.894a.383.383,0,0,0-.464-.174l-1.878.76a5.542,5.542,0,0,0-1.273-.744l-.283-2.011a.381.381,0,0,0-.377-.325H8.491a.373.373,0,0,0-.369.325L7.839,4.735a5.664,5.664,0,0,0-1.273.744L4.688,4.72a.374.374,0,0,0-.464.174l-1.5,2.628A.362.362,0,0,0,2.818,8l1.6,1.251A4.437,4.437,0,0,0,4.4,10.744L2.8,11.995a.39.39,0,0,0-.094.483l1.509,2.628a.383.383,0,0,0,.464.174l1.878-.76a5.542,5.542,0,0,0,1.273.744l.283,2.011a.387.387,0,0,0,.377.325h3.018a.367.367,0,0,0,.369-.325l.283-2.011a5.38,5.38,0,0,0,1.273-.744l1.878.76a.374.374,0,0,0,.464-.174l1.509-2.628a.368.368,0,0,0-.094-.483ZM10,12.85A2.85,2.85,0,1,1,12.829,10,2.848,2.848,0,0,1,10,12.85Z" transform="translate(0 0)" fill="#6a6975"/>
</svg>
