<svg width="18" height="18" viewBox="0 0 18 18" fill="none" xmlns="http://www.w3.org/2000/svg">
<path d="M4.12419 11.2507C4.78018 11.2488 5.41136 10.9997 5.89194 10.5532L10.5869 13.236C10.2618 14.5067 10.9188 15.8234 12.1297 16.3276C13.3405 16.8319 14.7379 16.3706 15.4107 15.2447C16.0836 14.1187 15.8277 12.6696 14.81 11.8421C13.7923 11.0147 12.3214 11.0599 11.3564 11.9482L6.66144 9.26548C6.71066 9.07727 6.73784 8.88397 6.74244 8.68948L11.3557 6.05323C12.2714 6.88568 13.645 6.96287 14.6482 6.23824C15.6513 5.51361 16.0097 4.18531 15.5072 3.05442C15.0047 1.92353 13.7787 1.29929 12.5685 1.55816C11.3584 1.81703 10.4951 2.88823 10.4992 4.12573C10.5019 4.34179 10.5313 4.55668 10.5869 4.76548L6.32394 7.20073C5.64106 6.1443 4.30473 5.7208 3.13802 6.19109C1.97131 6.66138 1.30223 7.89323 1.54288 9.12792C1.78354 10.3626 2.86626 11.253 4.12419 11.2507Z" fill="rgb(106, 123, 255)"/>
</svg>
