<svg xmlns="http://www.w3.org/2000/svg" x="0px" y="0px"
width="24" height="24"
viewBox="0 0 172 172"
style=" fill:#000000;"><g fill="none" fill-rule="nonzero" stroke="none" stroke-width="1" stroke-linecap="butt" stroke-linejoin="miter" stroke-miterlimit="10" stroke-dasharray="" stroke-dashoffset="0" font-family="none" font-weight="none" font-size="none" text-anchor="none" style="mix-blend-mode: normal"><path d="M0,172v-172h172v172z" fill="none"></path><g fill="#ffffff"><path d="M143.16536,22.36784l-2.61751,1.0638c0,0 -92.97874,38.01571 -121.81934,50.15267l-4.38118,1.84766v16.15299l35.44141,14.16536l12.41569,37.55502l11.2679,0.06998l19.3724,-16.37695l24.36947,23.47364h17.58073l22.61979,-122.70117zM140.7998,38.82878l-17.91667,97.19792l-29.39453,-28.31673l-20.21224,17.06282l5.55697,-21.75195l45.01563,-45.6875l-1.42774,-1.44173c0,0 -45.68986,26.33872 -65.07389,37.44304l-24.83138,-9.92416c32.53618,-13.56719 101.48597,-41.8017 108.28385,-44.58171z"></path></g></g></svg>