<svg id="touch_app-24px_1_" data-name="touch_app-24px (1)" xmlns="http://www.w3.org/2000/svg" width="24" height="24" viewBox="0 0 24 24">
  <g id="Group_1127" data-name="Group 1127">
    <rect id="Rectangle_313" data-name="Rectangle 313" width="24" height="24" fill="none"/>
  </g>
  <g id="Group_1130" data-name="Group 1130" transform="translate(4.75 3)">
    <g id="Group_1129" data-name="Group 1129">
      <g id="Group_1128" data-name="Group 1128">
        <path id="Path_196" data-name="Path 196" d="M9,11.24V7.5a2.5,2.5,0,0,1,5,0v3.74a4.5,4.5,0,1,0-5,0Zm9.84,4.63L14.3,13.61a1.408,1.408,0,0,0-.54-.11H13v-6a1.5,1.5,0,0,0-3,0V18.24c-3.6-.76-3.54-.75-3.67-.75a1.119,1.119,0,0,0-.79.33l-.79.8,4.94,4.94a1.505,1.505,0,0,0,1.06.44h6.79a1.457,1.457,0,0,0,1.44-1.28l.75-5.27a1.437,1.437,0,0,0-.89-1.58Z" transform="translate(-4.75 -3)" fill="#fff"/>
      </g>
    </g>
  </g>
</svg>
