<svg width="22" height="20" viewBox="0 0 22 20" fill="none" xmlns="http://www.w3.org/2000/svg">
<path d="M21.0846 9.99083L18.848 7.43333L19.1596 4.05083L15.8505 3.29917L14.118 0.375L11.0013 1.71333L7.88464 0.375L6.15214 3.29917L2.84297 4.04167L3.15464 7.43333L0.917969 9.99083L3.15464 12.5483L2.84297 15.94L6.15214 16.6917L7.88464 19.625L11.0013 18.2775L14.118 19.6158L15.8505 16.6917L19.1596 15.94L18.848 12.5575L21.0846 9.99083ZM17.4638 11.3475L16.9505 11.9433L17.0238 12.7225L17.1888 14.51L15.4471 14.9042L14.6771 15.0783L14.2738 15.7567L13.3663 17.2967L11.7346 16.5908L11.0013 16.2792L10.2771 16.5908L8.64547 17.2967L7.73797 15.7658L7.33464 15.0875L6.56463 14.9133L4.82297 14.5192L4.98797 12.7225L5.0613 11.9433L4.54797 11.3475L3.36547 10L4.54797 8.64333L5.0613 8.0475L4.9788 7.25917L4.8138 5.48083L6.55547 5.08667L7.32547 4.9125L7.7288 4.23417L8.6363 2.69417L10.268 3.4L11.0013 3.71167L11.7255 3.4L13.3571 2.69417L14.2646 4.23417L14.668 4.9125L15.438 5.08667L17.1796 5.48083L17.0146 7.26833L16.9413 8.0475L17.4546 8.64333L18.6371 9.99083L17.4638 11.3475Z" fill="#202766"/>
<path d="M9.24896 11.6048L7.12229 9.46901L5.76562 10.8348L9.24896 14.3273L15.9773 7.58068L14.6206 6.21484L9.24896 11.6048Z" fill="#202766"/>
</svg>
