<svg width="14" height="14" viewBox="0 0 14 14" fill="none" xmlns="http://www.w3.org/2000/svg">
<path d="M4.03851 11.3713L4.52864 11.6334C5.28821 12.0395 6.13645 12.2513 6.99775 12.25L7 12.25C9.8996 12.25 12.25 9.89959 12.25 7C12.25 4.1004 9.8996 1.75 7 1.75C4.10041 1.75 1.75001 4.1004 1.75001 7V7.00225C1.74871 7.86355 1.96054 8.71179 2.36663 9.47136L2.62866 9.96148L2.22575 11.7743L4.03851 11.3713ZM0.250008 13.75L1.04381 10.1786C0.521042 9.20075 0.248338 8.10878 0.250008 7C0.250008 3.27197 3.27198 0.25 7 0.25C10.728 0.25 13.75 3.27197 13.75 7C13.75 10.728 10.728 13.75 7 13.75C5.89122 13.7517 4.79925 13.479 3.82143 12.9562L0.250008 13.75Z" fill="#6A7BFF"/>
</svg>
