<svg width="16" height="17" viewBox="0 0 16 17" fill="none" xmlns="http://www.w3.org/2000/svg">
<path fill-rule="evenodd" clip-rule="evenodd" d="M5.7006 14.2358C5.7006 14.2358 5.48322 14.1448 4.80695 14.1355C4.80695 14.1355 4.22875 14.1276 3.94434 14.0756C3.94434 14.0756 3.38541 13.9734 3.0527 13.6407C3.0527 13.6407 2.71797 13.3059 2.61422 12.7375C2.61422 12.7375 2.56147 12.4484 2.55233 11.8617C2.55233 11.8617 2.54194 11.1956 2.45709 10.9916C2.45709 10.9916 2.37047 10.7834 1.89849 10.2896C1.89849 10.2896 1.49262 9.86493 1.32735 9.62611C1.32735 9.62611 1 9.15309 1 8.69336C1 8.69336 1 8.23565 1.32209 7.76947C1.32209 7.76947 1.48489 7.53383 1.88621 7.11505C1.88621 7.11505 2.36465 6.61581 2.45756 6.39396C2.45756 6.39396 2.5486 6.17658 2.55785 5.50031C2.55785 5.50031 2.56575 4.92211 2.61777 4.6377C2.61777 4.6377 2.71998 4.07877 3.0527 3.74606C3.0527 3.74606 3.38742 3.41133 3.9559 3.30758C3.9559 3.30758 4.24492 3.25483 4.83171 3.24569C4.83171 3.24569 5.49772 3.2353 5.70173 3.15045C5.70173 3.15045 5.91 3.06383 6.4038 2.59185C6.4038 2.59185 6.82843 2.18598 7.06725 2.02071C7.06725 2.02071 7.54027 1.69336 8 1.69336C8 1.69336 8.45771 1.69336 8.92389 2.01545C8.92389 2.01545 9.15953 2.17825 9.57831 2.57957C9.57831 2.57957 10.0775 3.05801 10.2994 3.15092C10.2994 3.15092 10.5168 3.24196 11.193 3.25121C11.193 3.25121 11.7712 3.25911 12.0557 3.31113C12.0557 3.31113 12.6146 3.41334 12.9473 3.74606C12.9473 3.74606 13.282 4.08078 13.3858 4.64926C13.3858 4.64926 13.4385 4.93828 13.4477 5.52507C13.4477 5.52507 13.4581 6.19108 13.5429 6.39509C13.5429 6.39509 13.6295 6.60336 14.1015 7.09716C14.1015 7.09716 14.5074 7.52179 14.6726 7.76061C14.6726 7.76061 15 8.23363 15 8.69336C15 8.69336 15 9.15107 14.6779 9.61725C14.6779 9.61725 14.5151 9.85289 14.1138 10.2717C14.1138 10.2717 13.6353 10.7709 13.5424 10.9928C13.5424 10.9928 13.4514 11.2101 13.4422 11.8864C13.4422 11.8864 13.4342 12.4646 13.3822 12.749C13.3822 12.749 13.28 13.3079 12.9473 13.6407C12.9473 13.6407 12.6126 13.9754 12.0441 14.0791C12.0441 14.0791 11.7551 14.1319 11.1683 14.141C11.1683 14.141 10.5023 14.1514 10.2983 14.2363C10.2983 14.2363 10.09 14.3229 9.5962 14.7949C9.5962 14.7949 9.17157 15.2007 8.93275 15.366C8.93275 15.366 8.45973 15.6934 8 15.6934C8 15.6934 7.54229 15.6934 7.07611 15.3713C7.07611 15.3713 6.84047 15.2085 6.42169 14.8071C6.42169 14.8071 5.92245 14.3287 5.7006 14.2358ZM6.0869 13.3134C6.0869 13.3134 6.48017 13.4781 7.1136 14.0852C7.1136 14.0852 7.74824 14.6934 8 14.6934C8 14.6934 8.25513 14.6934 8.90525 14.072C8.90525 14.072 9.53382 13.4712 9.91423 13.313C9.91423 13.313 10.2951 13.1545 11.1527 13.1412C11.1527 13.1412 12.0465 13.1272 12.2402 12.9336C12.2402 12.9336 12.4303 12.7434 12.4422 11.8727C12.4422 11.8727 12.4541 11.0026 12.6201 10.6065C12.6201 10.6065 12.7848 10.2132 13.3918 9.57976C13.3918 9.57976 14 8.94512 14 8.69336C14 8.69336 14 8.43823 13.3786 7.78811C13.3786 7.78811 12.7778 7.15954 12.6196 6.77913C12.6196 6.77913 12.4612 6.39823 12.4478 5.54065C12.4478 5.54065 12.4339 4.64683 12.2402 4.45316C12.2402 4.45316 12.0501 4.26302 11.1794 4.25111C11.1794 4.25111 10.3093 4.23922 9.9131 4.0733C9.9131 4.0733 9.51983 3.90859 8.8864 3.30156C8.8864 3.30156 8.25176 2.69336 8 2.69336C8 2.69336 7.74487 2.69336 7.09475 3.31475C7.09475 3.31475 6.46618 3.91554 6.08577 4.07377C6.08577 4.07377 5.70487 4.2322 4.84729 4.24556C4.84729 4.24556 3.95347 4.2595 3.7598 4.45316C3.7598 4.45316 3.56966 4.64331 3.55775 5.51398C3.55775 5.51398 3.54586 6.38407 3.37994 6.78026C3.37994 6.78026 3.21523 7.17353 2.6082 7.80696C2.6082 7.80696 2 8.4416 2 8.69336C2 8.69336 2 8.94849 2.62139 9.59861C2.62139 9.59861 3.22219 10.2272 3.38041 10.6076C3.38041 10.6076 3.53884 10.9885 3.5522 11.8461C3.5522 11.8461 3.56614 12.7399 3.7598 12.9336C3.7598 12.9336 3.94995 13.1237 4.82062 13.1356C4.82062 13.1356 5.69072 13.1475 6.0869 13.3134Z" fill="#1C1C1C"/>
<path d="M5.59544 8.58188C5.50241 8.49297 5.37868 8.44336 5.25 8.44336C5.24989 8.44336 5.23866 8.44349 5.23866 8.44349C5.10608 8.4465 4.98014 8.50205 4.88852 8.59792C4.79961 8.69095 4.75 8.81468 4.75 8.94336L4.75013 8.9547C4.75314 9.08727 4.80869 9.21322 4.90456 9.30484L6.73581 11.0548C6.92895 11.2394 7.23308 11.2395 7.42639 11.0551L11.095 7.55525C11.191 7.46372 11.2467 7.3377 11.2499 7.20513C11.25 7.19712 11.25 7.18911 11.2498 7.1811C11.2468 7.05684 11.1976 6.93816 11.1118 6.84822C11.0174 6.74932 10.8867 6.69336 10.75 6.69336L10.7359 6.69356C10.6123 6.69705 10.4943 6.74622 10.4049 6.83158L7.08154 10.002L5.59544 8.58188Z" fill="#1C1C1C"/>
</svg> 