<svg width="25" height="24" viewBox="0 0 25 24" fill="none" xmlns="http://www.w3.org/2000/svg">
<path d="M4.25 6.75H20.75C21.1642 6.75 21.5 7.08577 21.5 7.5V18.75C21.5 19.1642 21.1642 19.5 20.75 19.5H4.25C3.83582 19.5 3.5 19.1642 3.5 18.75V7.5C3.5 7.08577 3.83582 6.75 4.25 6.75Z" fill="white" fill-opacity="0.1"/>
<path fill-rule="evenodd" clip-rule="evenodd" d="M2.75 7.5C2.75 7.5 2.75 6.87868 3.18934 6.43934C3.18934 6.43934 3.62868 6 4.25 6H20.75C20.75 6 21.3713 6 21.8107 6.43934C21.8107 6.43934 22.25 6.87868 22.25 7.5V18.75C22.25 18.75 22.25 19.3713 21.8107 19.8107C21.8107 19.8107 21.3713 20.25 20.75 20.25H4.25C4.25 20.25 3.62868 20.25 3.18934 19.8107C3.18934 19.8107 2.75 19.3713 2.75 18.75V7.5ZM4.25 7.5V18.75H20.75V7.5H4.25Z" fill="white"/>
<path d="M17.53 2.78061L17.5303 2.78033C17.671 2.63968 17.75 2.44891 17.75 2.25C17.75 2.05109 17.671 1.86032 17.5303 1.71967C17.3897 1.57902 17.1989 1.5 17 1.5C16.8011 1.5 16.6103 1.57902 16.4697 1.71967L16.4694 1.71995L12.5 5.68934L8.53042 1.71976C8.38968 1.57902 8.19891 1.5 8 1.5C7.80109 1.5 7.61032 1.57902 7.46967 1.71967C7.32902 1.86032 7.25 2.05109 7.25 2.25C7.25 2.44891 7.32902 2.63968 7.46967 2.78033L11.9697 7.28033C12.1103 7.42098 12.3011 7.5 12.5 7.5C12.6989 7.5 12.8897 7.42098 13.0303 7.28033L17.53 2.78061Z" fill="white"/>
</svg> 