<svg id="visibility-24px_1_" data-name="visibility-24px (1)" xmlns="http://www.w3.org/2000/svg" width="20" height="20" viewBox="0 0 20 20">
  <path id="Path_58" data-name="Path 58" d="M0,0H20V20H0Z" fill="none"/>
  <path id="Path_59" data-name="Path 59" d="M10,4.5A9.716,9.716,0,0,0,1,10a9.716,9.716,0,0,0,9,5.5A9.716,9.716,0,0,0,19,10,9.716,9.716,0,0,0,10,4.5Zm0,9.167A3.9,3.9,0,0,1,5.909,10,3.9,3.9,0,0,1,10,6.333,3.9,3.9,0,0,1,14.091,10,3.9,3.9,0,0,1,10,13.667ZM10,7.8A2.335,2.335,0,0,0,7.545,10,2.335,2.335,0,0,0,10,12.2,2.335,2.335,0,0,0,12.455,10,2.335,2.335,0,0,0,10,7.8Z" transform="translate(0 0)" fill="#6a7bff"/>
</svg>
