<svg xmlns="http://www.w3.org/2000/svg" width="68.44" height="61.242" viewBox="0 0 68.44 61.242">
  <g id="wallet" transform="translate(-1.812 -5.513)">
    <path id="Path_105" data-name="Path 105" d="M66.771,36.541a1.155,1.155,0,0,1-1.155-1.155V20.9H54.06a1.155,1.155,0,0,1,0-2.311H66.771a1.155,1.155,0,0,1,1.155,1.155V35.388a1.155,1.155,0,0,1-1.155,1.153Z" transform="translate(-1.405 -0.36)" fill="#6a7bff"/>
    <path id="Path_106" data-name="Path 106" d="M65.366,66.935H11.634a9.833,9.833,0,0,1-9.822-9.822V13.2a1.155,1.155,0,0,1,2.311,0v43.91a7.519,7.519,0,0,0,7.512,7.512H64.21V49.073a1.155,1.155,0,0,1,2.311,0V65.78A1.155,1.155,0,0,1,65.366,66.935Z" transform="translate(0 -0.18)" fill="#6a7bff"/>
    <path id="Path_107" data-name="Path 107" d="M69.156,50.85h-15.1a8.088,8.088,0,1,1,0-16.176h15.1a2.314,2.314,0,0,1,2.311,2.311V48.54a2.314,2.314,0,0,1-2.311,2.311Zm0-13.866h-15.1a5.778,5.778,0,0,0,0,11.555h15.1Z" transform="translate(-1.214 -0.802)" fill="#6a7bff"/>
    <path id="Path_108" data-name="Path 108" d="M52.655,20.534H9.323a7.511,7.511,0,1,1,0-15.021H51.495A2.321,2.321,0,0,1,53.81,7.834V19.379a1.155,1.155,0,0,1-1.155,1.155ZM9.323,7.824a5.2,5.2,0,1,0,0,10.4H51.495V7.834Z" transform="translate(0 0)" fill="#6a7bff"/>
    <path id="Path_109" data-name="Path 109" d="M52.977,14.359H14.66a1.155,1.155,0,0,1,0-2.311H52.977a1.155,1.155,0,0,1,0,2.311Z" transform="translate(-0.322 -0.18)" fill="#6a7bff"/>
    <path id="Path_110" data-name="Path 110" d="M55.219,46.44a3.862,3.862,0,1,1,3.863-3.861A3.862,3.862,0,0,1,55.219,46.44Zm0-5.684a1.822,1.822,0,1,0,1.821,1.823,1.822,1.822,0,0,0-1.821-1.823Z" transform="translate(-1.363 -0.913)" fill="#6a7bff"/>
  </g>
</svg>
