<svg id="wallet" xmlns="http://www.w3.org/2000/svg" width="59.5" height="53.242" viewBox="0 0 59.5 53.242">
  <path id="Path_105" data-name="Path 105" d="M64.96,34.2a1,1,0,0,1-1-1v-12.6H53.909a1,1,0,0,1,0-2.009H64.96a1,1,0,0,1,1,1v13.6a1,1,0,0,1-1,1Z" transform="translate(-9.708 -7.533)" fill="#fff"/>
  <path id="Path_106" data-name="Path 106" d="M57.064,59.765H10.351a8.548,8.548,0,0,1-8.539-8.539V13.052a1,1,0,0,1,2.009,0V51.227a6.537,6.537,0,0,0,6.53,6.53H56.059V44.236a1,1,0,0,1,2.009,0V58.761A1,1,0,0,1,57.064,59.765Z" transform="translate(-1.812 -6.523)" fill="#fff"/>
  <path id="Path_107" data-name="Path 107" d="M66.127,48.737H53a7.032,7.032,0,1,1,0-14.063H66.127a2.011,2.011,0,0,1,2.009,2.009V46.729a2.011,2.011,0,0,1-2.009,2.009Zm0-12.055H53a5.023,5.023,0,0,0,0,10.046H66.127Z" transform="translate(-8.635 -10.02)" fill="#fff"/>
  <path id="Path_108" data-name="Path 108" d="M46.013,18.572H8.341a6.529,6.529,0,1,1,0-13.059H45a2.018,2.018,0,0,1,2.013,2.018V17.568a1,1,0,0,1-1,1ZM8.341,7.522a4.521,4.521,0,1,0,0,9.041H45V7.531Z" transform="translate(-1.812 -5.513)" fill="#fff"/>
  <path id="Path_109" data-name="Path 109" d="M47.82,14.057H14.509a1,1,0,0,1,0-2.009H47.82a1,1,0,1,1,0,2.009Z" transform="translate(-3.619 -6.523)" fill="#fff"/>
  <path id="Path_110" data-name="Path 110" d="M54.714,45.431a3.357,3.357,0,1,1,3.358-3.356A3.357,3.357,0,0,1,54.714,45.431Zm0-4.942A1.584,1.584,0,1,0,56.3,42.074a1.584,1.584,0,0,0-1.583-1.585Z" transform="translate(-9.469 -10.644)" fill="#fff"/>
</svg>
