<svg width="18" height="18" viewBox="0 0 18 18" fill="none" xmlns="http://www.w3.org/2000/svg">
<path d="M5.25 6C5.25 3.92893 6.92893 2.25 9 2.25C11.0711 2.25 12.75 3.92893 12.75 6C12.75 8.07107 11.0711 9.75 9 9.75C6.92893 9.75 5.25 8.07107 5.25 6ZM9 8.25C10.2426 8.25 11.25 7.24264 11.25 6C11.25 4.75736 10.2426 3.75 9 3.75C7.75736 3.75 6.75 4.75736 6.75 6C6.75 7.24264 7.75736 8.25 9 8.25Z" fill="#6A7BFF"/>
<path d="M4.75736 12.2574C3.63214 13.3826 3 14.9087 3 16.5H4.5C4.5 15.3065 4.97411 14.1619 5.81802 13.318C6.66193 12.4741 7.80653 12 9 12C10.1935 12 11.3381 12.4741 12.182 13.318C13.0259 14.1619 13.5 15.3065 13.5 16.5H15C15 14.9087 14.3679 13.3826 13.2426 12.2574C12.1174 11.1321 10.5913 10.5 9 10.5C7.4087 10.5 5.88258 11.1321 4.75736 12.2574Z" fill="#6A7BFF"/>
</svg>
