<svg width="99" height="26" viewBox="0 0 99 26" fill="none" xmlns="http://www.w3.org/2000/svg">
<rect width="99" height="26" rx="13" fill="#202766"/>
<path d="M33.384 18.117C32.6733 18.117 32.006 18.0217 31.382 17.831C30.7667 17.6403 30.2423 17.3673 29.809 17.012L30.381 15.79C30.8317 16.128 31.2997 16.3793 31.785 16.544C32.279 16.7 32.8163 16.778 33.397 16.778C34.0383 16.778 34.5323 16.6653 34.879 16.44C35.2343 16.2147 35.412 15.8983 35.412 15.491C35.412 15.1443 35.2473 14.88 34.918 14.698C34.5973 14.5073 34.0643 14.3297 33.319 14.165C32.1577 13.9137 31.3127 13.5887 30.784 13.19C30.2553 12.7913 29.991 12.2107 29.991 11.448C29.991 10.902 30.1383 10.4167 30.433 9.992C30.7277 9.56733 31.1437 9.23367 31.681 8.991C32.227 8.74833 32.8553 8.627 33.566 8.627C34.216 8.627 34.8313 8.72667 35.412 8.926C36.0013 9.11667 36.4823 9.38533 36.855 9.732L36.296 10.954C35.4727 10.2953 34.5627 9.966 33.566 9.966C32.968 9.966 32.4957 10.0917 32.149 10.343C31.8023 10.5857 31.629 10.9193 31.629 11.344C31.629 11.708 31.7807 11.9853 32.084 12.176C32.396 12.3667 32.9247 12.5443 33.67 12.709C34.4413 12.891 35.0697 13.0903 35.555 13.307C36.0403 13.515 36.413 13.788 36.673 14.126C36.933 14.4553 37.063 14.8713 37.063 15.374C37.063 15.9287 36.9157 16.414 36.621 16.83C36.3263 17.2373 35.9017 17.5537 35.347 17.779C34.7923 18.0043 34.138 18.117 33.384 18.117ZM44.4802 11.435V18H42.8942V16.986C42.6862 17.35 42.4089 17.6273 42.0622 17.818C41.7155 18.0087 41.3169 18.104 40.8662 18.104C39.2629 18.104 38.4612 17.2027 38.4612 15.4V11.435H40.0732V15.413C40.0732 15.8897 40.1685 16.2407 40.3592 16.466C40.5585 16.6913 40.8619 16.804 41.2692 16.804C41.7459 16.804 42.1272 16.648 42.4132 16.336C42.6992 16.024 42.8422 15.608 42.8422 15.088V11.435H44.4802ZM48.6494 18.104C47.462 18.104 46.5174 17.8267 45.8154 17.272L46.2704 16.128C46.9724 16.648 47.774 16.908 48.6754 16.908C49.0654 16.908 49.3644 16.843 49.5724 16.713C49.789 16.583 49.8974 16.401 49.8974 16.167C49.8974 15.9677 49.8237 15.8117 49.6764 15.699C49.529 15.5777 49.2777 15.4737 48.9224 15.387L47.8304 15.14C46.6344 14.88 46.0364 14.269 46.0364 13.307C46.0364 12.9083 46.149 12.5573 46.3744 12.254C46.5997 11.942 46.916 11.6993 47.3234 11.526C47.7307 11.3527 48.203 11.266 48.7404 11.266C49.2084 11.266 49.659 11.3397 50.0924 11.487C50.5257 11.6257 50.907 11.8293 51.2364 12.098L50.7554 13.203C50.0967 12.7177 49.4207 12.475 48.7274 12.475C48.3547 12.475 48.0644 12.5443 47.8564 12.683C47.6484 12.8217 47.5444 13.0123 47.5444 13.255C47.5444 13.4457 47.605 13.5973 47.7264 13.71C47.8564 13.8227 48.073 13.918 48.3764 13.996L49.4944 14.243C50.1444 14.3903 50.6167 14.62 50.9114 14.932C51.2147 15.2353 51.3664 15.634 51.3664 16.128C51.3664 16.7347 51.1237 17.2157 50.6384 17.571C50.153 17.9263 49.49 18.104 48.6494 18.104ZM52.757 11.435H54.369V18H52.757V11.435ZM54.46 8.458V10.057H52.653V8.458H54.46ZM58.5517 18.104C57.3644 18.104 56.4197 17.8267 55.7177 17.272L56.1727 16.128C56.8747 16.648 57.6764 16.908 58.5777 16.908C58.9677 16.908 59.2667 16.843 59.4747 16.713C59.6914 16.583 59.7997 16.401 59.7997 16.167C59.7997 15.9677 59.726 15.8117 59.5787 15.699C59.4314 15.5777 59.18 15.4737 58.8247 15.387L57.7327 15.14C56.5367 14.88 55.9387 14.269 55.9387 13.307C55.9387 12.9083 56.0514 12.5573 56.2767 12.254C56.502 11.942 56.8184 11.6993 57.2257 11.526C57.633 11.3527 58.1054 11.266 58.6427 11.266C59.1107 11.266 59.5614 11.3397 59.9947 11.487C60.428 11.6257 60.8094 11.8293 61.1387 12.098L60.6577 13.203C59.999 12.7177 59.323 12.475 58.6297 12.475C58.257 12.475 57.9667 12.5443 57.7587 12.683C57.5507 12.8217 57.4467 13.0123 57.4467 13.255C57.4467 13.4457 57.5074 13.5973 57.6287 13.71C57.7587 13.8227 57.9754 13.918 58.2787 13.996L59.3967 14.243C60.0467 14.3903 60.519 14.62 60.8137 14.932C61.117 15.2353 61.2687 15.634 61.2687 16.128C61.2687 16.7347 61.026 17.2157 60.5407 17.571C60.0554 17.9263 59.3924 18.104 58.5517 18.104ZM62.6594 11.435H64.2714V18H62.6594V11.435ZM64.3624 8.458V10.057H62.5554V8.458H64.3624ZM71.795 14.802H67.271C67.3057 15.504 67.479 16.024 67.791 16.362C68.1117 16.6913 68.584 16.856 69.208 16.856C69.9274 16.856 70.5947 16.622 71.21 16.154L71.678 17.272C71.366 17.5233 70.9804 17.727 70.521 17.883C70.0704 18.0303 69.611 18.104 69.143 18.104C68.0684 18.104 67.2234 17.8007 66.608 17.194C65.9927 16.5873 65.685 15.7553 65.685 14.698C65.685 14.0307 65.8194 13.437 66.088 12.917C66.3567 12.397 66.7337 11.994 67.219 11.708C67.7044 11.4133 68.2547 11.266 68.87 11.266C69.7714 11.266 70.482 11.5607 71.002 12.15C71.5307 12.7307 71.795 13.5323 71.795 14.555V14.802ZM68.909 12.436C68.4757 12.436 68.1204 12.566 67.843 12.826C67.5744 13.0773 67.401 13.4457 67.323 13.931H70.378C70.326 13.437 70.1744 13.0643 69.923 12.813C69.6804 12.5617 69.3424 12.436 68.909 12.436ZM77.6561 18L74.7831 14.971V18H73.1711V8.432H74.7831V14.334L77.4871 11.448H79.4501L76.4991 14.581L79.6841 18H77.6561ZM82.3729 12.657V15.595C82.3729 16.3663 82.7325 16.752 83.4519 16.752C83.6512 16.752 83.8679 16.7173 84.1019 16.648V17.935C83.8159 18.039 83.4692 18.091 83.0619 18.091C82.3165 18.091 81.7445 17.883 81.3459 17.467C80.9472 17.051 80.7479 16.453 80.7479 15.673V12.657H79.4869V11.435H80.7479V9.836L82.3729 9.29V11.435H84.1149V12.657H82.3729ZM85.2317 11.435H86.8437V18H85.2317V11.435ZM86.9347 8.458V10.057H85.1277V8.458H86.9347Z" fill="white"/>
<path d="M15.0385 17.3713L15.5286 17.6334C16.2882 18.0395 17.1364 18.2513 17.9977 18.25L18 18.25C20.8996 18.25 23.25 15.8996 23.25 13C23.25 10.1004 20.8996 7.75 18 7.75C15.1004 7.75 12.75 10.1004 12.75 13V13.0023C12.7487 13.8636 12.9605 14.7118 13.3666 15.4714L13.6287 15.9615L13.2257 17.7743L15.0385 17.3713ZM11.25 19.75L12.0438 16.1786C11.521 15.2008 11.2483 14.1088 11.25 13C11.25 9.27197 14.272 6.25 18 6.25C21.728 6.25 24.75 9.27197 24.75 13C24.75 16.728 21.728 19.75 18 19.75C16.8912 19.7517 15.7992 19.479 14.8214 18.9562L11.25 19.75Z" fill="#6A7BFF"/>
</svg>
