<?xml version="1.0" standalone="no"?>
<!DOCTYPE svg PUBLIC "-//W3C//DTD SVG 20010904//EN"
 "http://www.w3.org/TR/2001/REC-SVG-20010904/DTD/svg10.dtd">
<svg version="1.0" xmlns="http://www.w3.org/2000/svg"
 width="860.000000pt" height="899.000000pt" viewBox="0 0 860.000000 899.000000"
 preserveAspectRatio="xMidYMid meet">

<g transform="translate(0.000000,899.000000) scale(0.100000,-0.100000)"
fill="#6a7bff" stroke="none">
<path d="M4010 8574 c-19 -2 -80 -9 -135 -14 -987 -102 -1935 -596 -2583
-1345 -539 -624 -850 -1327 -959 -2170 -25 -199 -25 -701 0 -900 41 -311 100
-575 190 -840 286 -838 845 -1556 1593 -2048 505 -332 1096 -549 1698 -622
828 -101 1701 67 2415 467 570 319 1037 749 1398 1288 292 437 501 952 597
1475 52 285 60 378 60 725 1 357 -9 467 -65 760 -39 200 -60 284 -116 455
-123 379 -264 671 -479 995 -584 882 -1499 1496 -2539 1705 -266 53 -408 67
-735 70 -168 2 -321 1 -340 -1z m-1966 -2682 c160 -88 332 -180 381 -207 130
-69 155 -90 155 -127 0 -19 -25 -76 -66 -152 -37 -66 -107 -193 -155 -281 -48
-88 -146 -268 -217 -400 -145 -268 -178 -319 -210 -323 -15 -2 -153 67 -390
196 -202 110 -382 207 -400 216 -48 25 -72 52 -72 83 0 15 31 83 69 152 38 69
171 315 297 546 126 231 237 428 246 437 10 10 30 18 44 18 15 0 152 -68 318
-158z m4878 141 c13 -16 111 -193 336 -608 35 -66 84 -154 107 -195 100 -180
165 -309 165 -332 0 -13 -6 -32 -12 -41 -7 -9 -110 -68 -228 -132 -118 -64
-287 -156 -375 -205 -205 -112 -220 -120 -243 -120 -27 0 -55 34 -113 140 -48
89 -117 216 -249 460 -31 58 -109 201 -173 317 -76 137 -117 223 -117 242 0
39 25 57 215 159 175 93 322 173 490 266 126 69 170 80 197 49z m-1991 -377
c118 -57 295 -142 393 -190 99 -48 192 -90 206 -93 18 -3 75 13 175 51 99 37
156 54 172 50 15 -4 32 -22 45 -48 11 -22 77 -142 146 -266 253 -453 402 -725
402 -733 0 -5 -15 -23 -33 -40 -42 -41 -481 -358 -517 -374 -37 -16 -44 -12
-271 169 -883 705 -1182 938 -1204 938 -21 0 -130 -44 -650 -265 -144 -62
-167 -68 -230 -69 -57 -1 -79 4 -120 25 -61 32 -111 94 -120 149 -12 71 18
114 137 195 56 39 181 129 278 200 277 206 241 188 585 301 170 56 328 103
351 103 32 1 85 -21 255 -103z m-1063 -100 c10 -10 10 -15 0 -28 -16 -19 -249
-193 -420 -311 -155 -109 -183 -144 -183 -231 0 -71 30 -132 92 -186 61 -54
117 -74 203 -73 88 1 87 0 516 182 186 78 325 131 344 131 37 0 37 0 270 -185
200 -159 881 -695 1001 -787 100 -77 133 -113 149 -163 35 -105 -51 -218 -164
-219 -60 -1 -101 22 -241 137 -44 36 -177 142 -295 234 -118 93 -288 227 -378
299 -262 207 -313 245 -331 242 -21 -4 -26 -35 -9 -55 12 -14 760 -605 898
-710 100 -75 127 -170 75 -260 -45 -76 -128 -102 -210 -64 -22 10 -173 122
-335 250 -652 513 -651 512 -673 509 -71 -10 -1 -72 638 -570 129 -100 160
-134 175 -189 27 -100 -59 -209 -165 -209 -60 0 -100 24 -281 170 -95 77 -183
145 -194 152 -11 7 -20 24 -20 38 0 50 -22 103 -62 146 -50 54 -111 79 -177
71 -43 -5 -53 -2 -90 24 -22 17 -51 48 -63 70 -25 45 -95 96 -145 105 -68 13
-151 -13 -204 -62 l-26 -25 -17 40 c-37 82 -115 131 -208 131 -56 0 -99 -19
-150 -68 -32 -29 -30 -30 -61 29 -34 64 -93 102 -166 107 -32 2 -74 -1 -93 -7
-46 -15 -112 -72 -128 -111 -7 -16 -19 -30 -26 -30 -17 0 -529 293 -557 318
-12 10 -17 26 -15 42 2 14 63 131 135 260 72 129 196 352 276 495 92 167 153
265 168 274 22 12 36 8 159 -40 186 -74 177 -74 535 44 160 52 299 98 310 100
31 8 129 -3 143 -17z m-871 -1377 c38 -14 83 -57 99 -96 19 -45 17 -90 -6
-157 -41 -120 -83 -156 -183 -156 -91 0 -156 59 -165 149 -6 62 11 126 49 187
45 70 132 101 206 73z m410 -74 c21 -9 46 -23 57 -33 25 -23 56 -90 56 -125 0
-36 -74 -262 -100 -305 -54 -88 -179 -107 -257 -39 -73 64 -79 120 -27 274 56
167 75 197 144 227 45 20 82 20 127 1z m385 -75 c77 -22 128 -87 128 -163 0
-40 -52 -210 -120 -389 -49 -131 -182 -174 -280 -92 -36 30 -50 55 -61 104 -7
29 2 67 53 220 33 102 69 201 78 220 24 47 60 79 107 95 47 17 49 17 95 5z
m370 -204 c34 -8 84 -50 104 -88 9 -17 16 -49 16 -72 1 -45 -107 -372 -144
-438 -52 -92 -174 -112 -258 -42 -42 36 -60 74 -60 128 0 50 118 405 148 445
27 36 65 62 103 70 34 7 41 7 91 -3z m228 -322 c145 -112 177 -181 129 -282
-30 -62 -68 -82 -154 -82 -73 0 -92 7 -146 57 l-27 25 53 158 c29 88 56 164
60 170 8 12 13 9 85 -46z"/>
</g>
</svg>
