<?xml version="1.0" encoding="iso-8859-1"?>
<!-- Generator: Adobe Illustrator 19.0.0, SVG Export Plug-In . SVG Version: 6.00 Build 0)  -->
<svg version="1.1" id="Layer_1" xmlns="http://www.w3.org/2000/svg" xmlns:xlink="http://www.w3.org/1999/xlink" x="0px" y="0px"
	 viewBox="0 0 509 509" style="enable-background:new 0 0 509 509;" xml:space="preserve">
<circle style="fill:#6EB1E1;" cx="254.5" cy="254.5" r="254.5"/>
<path style="fill:#DEDEDF;" d="M289.5,442.5c22.3-10,47.8-8.4,72.2-8.1c2.8,0,5.8,0,8.4-1.3c2.5-1.3,4.5-4.3,3.6-7
	c-0.4-1.4-1.5-2.5-2.6-3.4c-7.1-5.7-17-6.3-24.9-10.8c-8.6-4.9-13.8-14-18.7-22.6c-2.8-5-5.6-10-8.4-15l-35,41.7L289.5,442.5z"/>
<path style="fill:#F1F3F7;" d="M315.5,135.6l-19.8-9.6c-0.1,0.2-0.2,0.2-0.2,0.2c-33.7-0.8-79.5,24.8-98.5,72.9s0.7,127.6-21.2,140
	s-29.2-48.8-29.2-48.8c49.6-51,6.6-92.7,6.6-92.7s9.5,12.4-16.8,37.2s-18.2,36.9-18.2,36.9s-19-12.9-51.1,0s-40.8,3.2-40.8,3.2
	c19,52.5,78,43,78,43c-14.3,95.5,48,146.7,112.9,146.7c-0.3,0.3-0.6,0.7-0.9,1c-3.5,3.7-7.8,8-6.9,13c0.9,5.6,7.5,8.2,13.2,8.8
	c18.6,2,37-5.4,52.9-15.2c5.6-3.4,11.1-7.3,15.1-12.5c5.7-7.5,7.4-16.4,8.1-25.9c71.9-64-16.4-150.5-15.7-179.4
	c0.7-29.2,27-34.3,45.2-67.8c11.3-20.8,6.9-42.9,2-56.8L315.5,135.6z"/>
<path style="fill:#646B79;" d="M330.3,130c-3.1-8.6-6.3-14-6.3-14c-14.3-6.8-26.6,7.9-28.3,10l19.8,9.6L330.3,130z"/>
<path style="fill:#DEDEDF;" d="M237.2,392.4c0,0-0.1,0.2-0.3,0.6s-0.5,1.1-0.7,1.9c-0.6,1.7-1.1,4.2-1.3,7.5s0.2,7.3,0.6,11.9
	c0.2,2.3,0.4,4.9,0.4,7.5c0,2.7-0.2,5.5-0.6,8.4c-0.7,5.8-2.3,12-5,18.2s-6.4,12.4-11.3,17.9c-2.4,2.8-5,5.2-6.3,8
	c-1.3,2.7-0.9,5.3,1.3,7.2c2.2,1.9,5.6,3,9,3.4c3.7,0.4,7.2,0.4,10.9,0.1c7.3-0.6,14.5-2.5,21.3-5.1c3.4-1.3,6.7-2.8,10-4.4
	c3.2-1.6,6.4-3.4,9.4-5.1c6-3.6,11.6-7.5,15.2-12.4c0.5-0.7,0.9-1.3,1.4-2c0.4-0.7,0.7-1.3,1.1-1.9l0.5-1l0.5-1
	c0.3-0.7,0.6-1.4,0.9-2c1-2.8,1.9-5.5,2.4-8.3c1.1-5.5,1.5-10.7,1.8-15.3c0.3-4.6,0.6-8.7,1-12s0.8-5.9,1.1-7.7
	c0.4-1.8,0.6-2.7,0.6-2.7s-0.1,0.9-0.3,2.7c-0.2,1.8-0.3,4.4-0.4,7.7c-0.1,3.3,0,7.4,0,12c0,4.7,0,10-0.9,15.8c-0.4,2.9-1.1,5.9-2,9
	c-0.3,0.8-0.6,1.5-0.9,2.3l-0.5,1.2l-0.6,1.1c-0.4,0.8-0.8,1.6-1.2,2.3c-0.4,0.7-0.9,1.4-1.3,2c-3.9,5.9-9.9,10.3-16,14.1
	c-6.2,3.8-12.7,7.5-19.9,10.4c-7.1,2.8-14.8,5-22.7,5.7c-3.9,0.3-8.1,0.3-11.9-0.2c-2.1-0.3-4.1-0.7-6.1-1.4c-2-0.7-4-1.7-5.7-3.3
	c-0.9-0.8-1.6-1.7-2.3-2.8l-0.4-0.8l-0.4-1c-0.3-0.8-0.2-0.8-0.4-1.7c-0.2-1.2-0.1-2.5,0.1-3.6c0.2-1.2,0.7-2.2,1.1-3.2
	c2-3.9,5-6.4,7.3-9c4.7-5,8.4-10.7,11.2-16.4c2.7-5.7,4.6-11.5,5.6-17c0.5-2.8,0.8-5.4,1-7.9c0.2-2.6,0.2-5,0.2-7.3
	c-0.1-4.6-0.1-8.8,0.4-12.1c0.4-3.4,1.3-5.9,2-7.5c0.4-0.8,0.7-1.4,0.9-1.8C237.1,392.7,237.2,392.4,237.2,392.4z"/>
<path style="fill:#FBD303;" d="M338.8,69.8c0-13.2,5.7-25,14.9-33.1c-7.8-7-18.2-11.3-29.5-11.3s-21.7,4.3-29.5,11.3
	c9.1,8.1,14.9,20,14.9,33.1s-5.7,25-14.9,33.1c7.8,7,18.2,11.3,29.5,11.3s21.7-4.3,29.5-11.3C344.6,94.8,338.8,83,338.8,69.8z"/>
<g>
	<path style="fill:#EE4A68;" d="M309.4,69.8c0-13.2-5.7-25-14.9-33.1c-9.1,8.1-14.9,20-14.9,33.1s5.7,25,14.9,33.1
		C303.7,94.8,309.4,83,309.4,69.8z"/>
	<path style="fill:#EE4A68;" d="M368.5,69.8c0-13.2-5.7-25-14.9-33.1c-9.1,8.1-14.9,20-14.9,33.1s5.7,25,14.9,33.1
		C362.8,94.8,368.5,83,368.5,69.8z"/>
</g>
<ellipse style="fill:#646B79;" cx="270.4" cy="160.3" rx="9.3" ry="8.6"/>
<path style="fill:#DEDEDF;" d="M187.6,334.6c0,0-13.8,12.3-13.4,27.9c0,0-3.5-13.1,0-18.8c0,0-26.8,5.5-31.9,30.6
	c0,0,3.3-31.9,18.5-33.5c0,0,20.3,12,26.8-20.6C187.6,320.1,183.2,336.1,187.6,334.6z"/>
<g>
</g>
<g>
</g>
<g>
</g>
<g>
</g>
<g>
</g>
<g>
</g>
<g>
</g>
<g>
</g>
<g>
</g>
<g>
</g>
<g>
</g>
<g>
</g>
<g>
</g>
<g>
</g>
<g>
</g>
</svg>
